<svg width="500" height="150" viewBox="0 0 500 150" fill="none" xmlns="http://www.w3.org/2000/svg">
<g clip-path="url(#clip0_723_149)">
<rect width="500" height="150" rx="6" fill="white"/>
<path fill-rule="evenodd" clip-rule="evenodd" d="M361.088 49.3332L373.199 55.0803C374.222 55.5658 374.029 57.0616 372.917 57.2722L359.744 59.7639C358.783 59.9456 358.017 59.6774 357.624 59.4909L349.761 55.7597C349.366 55.5723 348.884 55.5676 348.581 55.8833C348.442 56.0282 348.322 56.1917 348.225 56.3701C348.018 56.7467 348.191 57.1734 348.356 57.5797C348.377 57.6319 348.399 57.6837 348.419 57.7351C348.508 57.9645 348.545 58.2203 348.51 58.4886C348.484 58.69 348.421 58.874 348.33 59.0372C348.299 59.0921 348.267 59.1473 348.235 59.2027C348 59.613 347.755 60.0399 347.791 60.504L348.169 65.3117C348.208 65.8049 347.805 66.2162 347.341 66.1565L344.798 65.8291C344.334 65.7694 344.049 65.2693 344.211 64.8021L345.795 60.2469C345.948 59.8073 345.819 59.3322 345.695 58.8757C345.678 58.8139 345.661 58.7525 345.645 58.6916C345.598 58.5105 345.584 58.3165 345.61 58.1151C345.651 57.794 345.786 57.5146 345.979 57.2943C346.259 56.9757 346.554 56.6209 346.695 56.2209C346.984 55.4028 346.804 54.3562 346.02 53.9843L345.512 53.7433C344.49 53.2584 344.682 51.762 345.794 51.5518L358.967 49.0601C359.684 48.9243 360.428 49.02 361.088 49.3332ZM357.008 60.9065C357.562 61.1693 358.634 61.5438 359.981 61.2892L365.196 60.3025C366.041 60.1427 366.821 60.7959 366.812 61.6557L366.801 62.6421H369.873C370.625 62.6421 371.235 63.252 371.235 64.0043V66.6611C371.235 67.4134 370.625 68.0233 369.873 68.0233H357.274C356.521 68.0233 355.911 68.6332 355.911 69.3855V72.9529C355.911 73.7052 356.521 74.3151 357.274 74.3151H368.082C368.834 74.3151 369.444 74.925 369.444 75.6773V78.1685C369.444 78.9208 368.834 79.5307 368.082 79.5307H357.274C356.521 79.5307 355.911 80.1406 355.911 80.8929V84.8742C355.911 85.6266 356.521 86.2365 357.274 86.2365H370.414C371.166 86.2365 371.776 86.8464 371.776 87.5987V90.2554C371.776 91.0077 371.166 91.6176 370.414 91.6176H350.57C349.817 91.6176 349.208 91.0077 349.208 90.2554V64.0043C349.208 63.7795 349.262 63.5674 349.358 63.3805C349.36 63.3502 349.363 63.32 349.366 63.2899L350.308 59.5311C350.516 58.6971 351.436 58.2627 352.213 58.6313L357.008 60.9065ZM241.221 90.2103C243.636 91.4797 246.329 92.1144 249.299 92.1144C251.825 92.1144 254.116 91.6728 256.17 90.7898C257.815 90.0823 259.247 89.118 260.465 87.8969C260.977 87.3841 260.915 86.5564 260.381 86.0667L258.039 83.9173C257.472 83.3971 256.593 83.4579 256.023 83.9749C254.24 85.593 252.124 86.402 249.674 86.402C247.87 86.402 246.26 86.0157 244.844 85.243C243.428 84.4427 242.318 83.3389 241.513 81.9315C240.735 80.5241 240.347 78.9236 240.347 77.1299C240.347 75.3362 240.735 73.7356 241.513 72.3282C242.318 70.9208 243.428 69.8308 244.844 69.0581C246.26 68.2578 247.87 67.8577 249.674 67.8577C252.124 67.8577 254.24 68.6569 256.023 70.2554C256.594 70.7668 257.468 70.8248 258.033 70.3068L260.373 68.1588C260.91 67.6662 260.969 66.8324 260.45 66.3212C259.235 65.1249 257.809 64.1745 256.17 63.47C254.143 62.5869 251.867 62.1454 249.341 62.1454C246.343 62.1454 243.636 62.7939 241.221 64.0909C238.834 65.3603 236.946 67.1402 235.558 69.4307C234.198 71.6935 233.518 74.2599 233.518 77.1299C233.518 79.9998 234.198 82.58 235.558 84.8705C236.946 87.1333 238.834 88.9132 241.221 90.2103ZM162.766 87.5987C162.766 86.8464 162.156 86.2365 161.404 86.2365H148.264C147.512 86.2365 146.902 85.6266 146.902 84.8742V80.8929C146.902 80.1406 147.512 79.5307 148.264 79.5307H159.072C159.825 79.5307 160.434 78.9208 160.434 78.1685V75.6773C160.434 74.925 159.825 74.3151 159.072 74.3151H148.264C147.512 74.3151 146.902 73.7052 146.902 72.9529V69.3855C146.902 68.6332 147.512 68.0233 148.264 68.0233H160.863C161.615 68.0233 162.225 67.4134 162.225 66.6611V64.0043C162.225 63.252 161.615 62.6421 160.863 62.6421H141.56C140.808 62.6421 140.198 63.252 140.198 64.0043V90.2554C140.198 91.0077 140.808 91.6176 141.56 91.6176H161.404C162.156 91.6176 162.766 91.0077 162.766 90.2554V87.5987ZM169.496 62.6421C168.743 62.6421 168.133 63.252 168.133 64.0043V90.2554C168.133 91.0077 168.743 91.6176 169.496 91.6176H181.375C184.539 91.6176 187.329 91.0243 189.744 89.8377C192.187 88.6235 194.075 86.9264 195.407 84.7463C196.767 82.5662 197.448 80.0274 197.448 77.1299C197.448 74.2323 196.767 71.6935 195.407 69.5135C194.075 67.3334 192.187 65.6501 189.744 64.4634C187.329 63.2492 184.539 62.6421 181.375 62.6421H169.496ZM187.995 83.7115C186.274 85.312 183.956 86.1123 181.042 86.1123H176.241C175.489 86.1123 174.879 85.5024 174.879 84.7501V69.5097C174.879 68.7574 175.489 68.1475 176.241 68.1475H181.042C183.956 68.1475 186.274 68.9615 187.995 70.5897C189.744 72.1902 190.619 74.3703 190.619 77.1299C190.619 79.8894 189.744 82.0833 187.995 83.7115ZM215.485 92.1144C211.321 92.1144 208.073 90.9691 205.741 88.6787C203.437 86.3882 202.285 83.1181 202.285 78.8684V64.0043C202.285 63.252 202.895 62.6421 203.647 62.6421H207.668C208.421 62.6421 209.03 63.252 209.03 64.0043V78.62C209.03 83.808 211.196 86.402 215.526 86.402C217.636 86.402 219.246 85.7811 220.356 84.5393C221.467 83.2699 222.022 81.2968 222.022 78.62V64.0043C222.022 63.252 222.632 62.6421 223.384 62.6421H227.322C228.074 62.6421 228.684 63.252 228.684 64.0043V78.8684C228.684 83.1181 227.518 86.3882 225.186 88.6787C222.882 90.9691 219.648 92.1144 215.485 92.1144ZM284.864 86.2478C284.652 85.7397 284.156 85.4086 283.606 85.4086H271.891C271.341 85.4086 270.844 85.7397 270.633 86.2478L268.749 90.7784C268.538 91.2865 268.042 91.6176 267.491 91.6176H263.592C262.604 91.6176 261.945 90.5994 262.349 89.6981L274.119 63.447C274.338 62.9573 274.825 62.6421 275.362 62.6421H280.261C280.797 62.6421 281.283 62.9566 281.503 63.4455L293.311 89.6966C293.716 90.598 293.057 91.6176 292.069 91.6176H288.005C287.455 91.6176 286.959 91.2865 286.747 90.7784L284.864 86.2478ZM280.348 80.3172C281.32 80.3172 281.979 79.3283 281.605 78.4311L279.027 72.2418C278.561 71.124 276.977 71.124 276.512 72.2418L273.933 78.4311C273.559 79.3283 274.218 80.3172 275.19 80.3172H280.348ZM296.959 90.7898C297.737 91.5624 298.694 91.9488 299.832 91.9488C300.971 91.9488 301.928 91.5624 302.705 90.7898C303.483 90.0171 303.871 89.0512 303.871 87.8922C303.871 86.7056 303.483 85.7535 302.705 85.036C301.928 84.291 300.971 83.9184 299.832 83.9184C298.694 83.9184 297.737 84.291 296.959 85.036C296.182 85.7535 295.793 86.7056 295.793 87.8922C295.793 89.0512 296.182 90.0171 296.959 90.7898ZM337.322 91.6176C336.571 91.6176 335.962 91.0097 335.96 90.2587L335.933 79.1352C335.93 77.7547 334.112 77.2542 333.402 78.4385L327.74 87.8922C327.494 88.303 327.051 88.5545 326.572 88.5545H325.067C324.593 88.5545 324.153 88.3078 323.906 87.9033L318.292 78.7299C317.574 77.5567 315.768 78.0655 315.768 79.4409V90.2554C315.768 91.0077 315.158 91.6176 314.406 91.6176H310.801C310.049 91.6176 309.439 91.0077 309.439 90.2554V64.0043C309.439 63.252 310.049 62.6421 310.801 62.6421H314.251C314.727 62.6421 315.169 62.891 315.416 63.2985L324.754 78.7106C325.286 79.5892 326.562 79.5848 327.089 78.7026L336.275 63.3064C336.52 62.8944 336.965 62.6421 337.444 62.6421H340.851C341.601 62.6421 342.211 63.2496 342.213 64.0004L342.288 90.2515C342.29 91.0054 341.68 91.6176 340.926 91.6176H337.322Z" fill="url(#paint0_linear_723_149)"/>
<g opacity="0.15">
<path d="M17.3906 145.826C13.8616 144.008 11.1994 140.862 9.98974 137.081C8.78008 133.3 9.12202 129.193 10.9403 125.664C12.7587 122.135 15.9044 119.473 19.6855 118.263C23.4667 117.054 27.5735 117.396 31.1025 119.214C34.6316 121.032 37.2937 124.178 38.5034 127.959C39.7131 131.74 39.3711 135.847 37.5528 139.376C35.7345 142.905 32.5888 145.567 28.8076 146.777C25.0265 147.987 20.9196 147.645 17.3906 145.826ZM50.5937 150.762C51.3726 149.624 52.1135 148.466 52.7599 147.212C53.4064 145.957 53.9387 144.644 54.4527 143.273L65.6673 141.209C66.6835 141.011 67.4025 140.082 67.3772 139.011L66.5513 121.939C66.526 120.868 65.6758 119.996 64.6631 119.908L53.2378 118.832C52.0249 116.331 50.6379 113.98 48.7325 111.796L52.5168 100.996C52.6703 100.509 52.6462 99.9825 52.4489 99.511C52.2515 99.0394 51.8936 98.653 51.4386 98.4201L36.2315 90.5847C35.281 90.095 34.1301 90.3679 33.5079 91.202L26.9103 100.552C24.0254 100.268 21.3065 100.503 18.5656 100.967L11.058 92.2879C10.3979 91.5148 9.19513 91.3281 8.30797 91.9294L-6.07321 101.166C-6.99839 101.748 -7.29917 102.892 -6.87066 103.834L-2.04182 114.164C-2.8599 115.378 -3.62037 116.574 -4.26679 117.829C-4.91321 119.083 -5.42599 120.359 -5.90075 121.654L-17.1742 123.831C-18.1904 124.03 -18.9474 124.939 -18.8841 126.03L-18.0581 143.101C-18.0328 144.173 -17.1631 145.006 -16.17 145.133L-4.7251 146.17C-3.53172 148.71 -2.14476 151.06 -0.239351 153.245L-4.02364 164.044C-4.34169 165.035 -3.89591 166.131 -2.94546 166.62L12.2617 174.456C13.2121 174.945 14.3631 174.672 14.9853 173.838L21.5829 164.488C24.4873 164.734 27.1867 164.537 29.9471 164.035L37.4351 172.752C38.1148 173.488 39.298 173.712 40.1852 173.111L54.5664 163.874C55.4535 163.273 55.7923 162.149 55.3638 161.206L50.5937 150.762Z" fill="url(#paint1_linear_723_149)"/>
</g>
<g opacity="0.15">
<path d="M105.457 46.8662C103.508 45.8621 102.038 44.1249 101.37 42.0369C100.702 39.9489 100.891 37.6811 101.895 35.7323C102.899 33.7835 104.636 32.3134 106.724 31.6454C108.812 30.9774 111.08 31.1663 113.029 32.1704C114.978 33.1745 116.448 34.9116 117.116 36.9996C117.784 39.0876 117.595 41.3555 116.591 43.3042C115.587 45.253 113.849 46.7231 111.761 47.3911C109.673 48.0591 107.406 47.8703 105.457 46.8662ZM123.792 49.5918C124.222 48.9632 124.631 48.3239 124.988 47.6311C125.345 46.9383 125.639 46.213 125.923 45.4559L132.116 44.3163C132.677 44.2069 133.074 43.6942 133.06 43.1025L132.604 33.6752C132.59 33.0835 132.121 32.6025 131.561 32.5535L125.252 31.9594C124.582 30.5782 123.817 29.2802 122.764 28.0739L124.854 22.1103C124.939 21.841 124.926 21.5505 124.817 21.2901C124.708 21.0297 124.51 20.8163 124.259 20.6877L115.861 16.3609C115.336 16.0904 114.701 16.2412 114.357 16.7018L110.714 21.8649C109.121 21.7083 107.619 21.838 106.106 22.0943L101.96 17.3014C101.595 16.8745 100.931 16.7714 100.441 17.1034L92.4998 22.204C91.9889 22.5252 91.8228 23.157 92.0594 23.6774L94.726 29.3818C94.2742 30.0523 93.8543 30.7127 93.4973 31.4055C93.1403 32.0983 92.8572 32.8025 92.595 33.5176L86.3696 34.7202C85.8085 34.8296 85.3905 35.3316 85.4254 35.934L85.8815 45.3614C85.8955 45.9531 86.3758 46.4131 86.9242 46.4831L93.2442 47.0561C93.9032 48.4584 94.6691 49.7563 95.7213 50.9626L93.6316 56.9263C93.4559 57.4734 93.7021 58.0784 94.227 58.3489L102.625 62.6757C103.149 62.9461 103.785 62.7954 104.129 62.3348L107.772 57.1716C109.376 57.3072 110.866 57.1986 112.391 56.9213L116.526 61.7351C116.901 62.141 117.554 62.2652 118.044 61.9331L125.986 56.8326C126.476 56.5005 126.663 55.8796 126.426 55.3592L123.792 49.5918Z" fill="url(#paint2_linear_723_149)"/>
</g>
<g opacity="0.15">
<path d="M5.45685 10.8662C3.50806 9.86207 2.03797 8.12494 1.36998 6.03694C0.701986 3.94893 0.890809 1.68109 1.89491 -0.267696C2.89901 -2.21648 4.63614 -3.68657 6.72414 -4.35456C8.81215 -5.02255 11.08 -4.83373 13.0288 -3.82963C14.9776 -2.82553 16.4477 -1.0884 17.1156 0.999603C17.7836 3.08761 17.5948 5.35545 16.5907 7.30424C15.5866 9.25302 13.8495 10.7231 11.7615 11.3911C9.67348 12.0591 7.40563 11.8703 5.45685 10.8662ZM23.7921 13.5918C24.2222 12.9632 24.6314 12.3239 24.9883 11.6311C25.3453 10.9383 25.6393 10.213 25.9231 9.45594L32.116 8.31631C32.6771 8.20692 33.0741 7.69417 33.0602 7.1025L32.6041 -2.32484C32.5901 -2.91651 32.1207 -3.39752 31.5614 -3.44654L25.2522 -4.04059C24.5824 -5.42184 23.8165 -6.71976 22.7643 -7.92608L24.854 -13.8897C24.9388 -14.159 24.9255 -14.4495 24.8165 -14.7099C24.7076 -14.9703 24.5099 -15.1837 24.2587 -15.3123L15.8611 -19.6391C15.3362 -19.9096 14.7006 -19.7588 14.357 -19.2982L10.7137 -14.1351C9.1207 -14.2917 7.61924 -14.162 6.10569 -13.9057L1.95988 -18.6986C1.59537 -19.1255 0.931178 -19.2286 0.441275 -18.8966L-7.50022 -13.796C-8.01112 -13.4748 -8.17722 -12.843 -7.94059 -12.3226L-5.27403 -6.61819C-5.72578 -5.94767 -6.14573 -5.28732 -6.50269 -4.59451C-6.85965 -3.90171 -7.14282 -3.19745 -7.40499 -2.48238L-13.6304 -1.27977C-14.1915 -1.17038 -14.6095 -0.668445 -14.5746 -0.0659554L-14.1185 9.36138C-14.1045 9.95305 -13.6242 10.4131 -13.0758 10.4831L-6.75578 11.0561C-6.09677 12.4584 -5.33088 13.7563 -4.27868 14.9626L-6.36842 20.9263C-6.54405 21.4734 -6.29788 22.0784 -5.77303 22.3489L2.62457 26.6757C3.14942 26.9461 3.785 26.7954 4.12859 26.3348L7.77188 21.1716C9.37575 21.3072 10.8664 21.1986 12.3908 20.9213L16.5257 25.7351C16.9011 26.141 17.5544 26.2652 18.0444 25.9331L25.9858 20.8326C26.4758 20.5005 26.6628 19.8796 26.4262 19.3592L23.7921 13.5918Z" fill="url(#paint3_linear_723_149)"/>
</g>
<g opacity="0.15">
<path d="M264.351 50.9024C263.553 50.4911 262.624 50.4137 261.768 50.6874C260.913 50.961 260.201 51.5633 259.79 52.3617C259.378 53.1601 259.301 54.0893 259.575 54.9447C259.848 55.8001 260.45 56.5118 261.249 56.9232C262.047 57.3346 262.976 57.4119 263.832 57.1383C264.687 56.8646 265.399 56.2623 265.81 55.4639C266.222 54.6655 266.299 53.7364 266.025 52.8809C265.752 52.0255 265.149 51.3138 264.351 50.9024ZM269.62 56.3712C269.513 56.6642 269.397 56.9527 269.251 57.2366C269.105 57.5204 268.933 57.791 268.747 58.0657L269.84 60.4027C269.937 60.6159 269.86 60.8703 269.659 61.0064L266.406 63.096C266.205 63.2321 265.933 63.1898 265.784 63.0149L264.085 61.0513C263.465 61.1563 262.85 61.2094 262.197 61.1453L260.705 63.2606C260.635 63.3529 260.535 63.4176 260.422 63.4431C260.309 63.4687 260.191 63.4535 260.089 63.4003L256.648 61.6276C256.433 61.5168 256.332 61.2689 256.404 61.0448L257.26 58.6015C256.829 58.1073 256.515 57.5755 256.241 57.0096L253.656 56.7663C253.427 56.7462 253.235 56.5491 253.229 56.3067L253.042 52.4444C253.028 52.1976 253.199 51.9919 253.429 51.9471L255.966 51.4802C256.082 51.17 256.203 50.8729 256.349 50.5891C256.495 50.3052 256.663 50.0433 256.839 49.7858L255.76 47.4229C255.663 47.2097 255.731 46.9509 255.94 46.8193L259.194 44.7296C259.395 44.5936 259.662 44.6444 259.816 44.8107L261.51 46.7829C262.135 46.6693 262.75 46.6162 263.403 46.6804L264.895 44.565C265.036 44.3763 265.296 44.3146 265.511 44.4254L268.952 46.1981C269.167 46.3088 269.268 46.5567 269.196 46.7809L268.34 49.2241C268.766 49.727 269.084 50.2501 269.354 50.8246L271.944 51.0594C272.168 51.0881 272.365 51.2765 272.371 51.5189L272.558 55.3813C272.564 55.6237 272.401 55.8337 272.171 55.8785L269.62 56.3712Z" fill="url(#paint4_linear_723_149)"/>
</g>
<g opacity="0.15">
<path d="M176.351 125.902C175.553 125.491 174.624 125.414 173.768 125.687C172.913 125.961 172.201 126.563 171.79 127.362C171.378 128.16 171.301 129.089 171.575 129.945C171.848 130.8 172.45 131.512 173.249 131.923C174.047 132.335 174.976 132.412 175.832 132.138C176.687 131.865 177.399 131.262 177.81 130.464C178.222 129.666 178.299 128.736 178.025 127.881C177.752 127.025 177.149 126.314 176.351 125.902ZM181.62 131.371C181.513 131.664 181.397 131.953 181.251 132.237C181.105 132.52 180.933 132.791 180.747 133.066L181.84 135.403C181.937 135.616 181.86 135.87 181.659 136.006L178.406 138.096C178.205 138.232 177.933 138.19 177.784 138.015L176.085 136.051C175.465 136.156 174.85 136.209 174.197 136.145L172.705 138.261C172.635 138.353 172.535 138.418 172.422 138.443C172.309 138.469 172.191 138.454 172.089 138.4L168.648 136.628C168.433 136.517 168.332 136.269 168.404 136.045L169.26 133.601C168.829 133.107 168.515 132.576 168.241 132.01L165.656 131.766C165.427 131.746 165.235 131.549 165.229 131.307L165.042 127.444C165.028 127.198 165.199 126.992 165.429 126.947L167.966 126.48C168.082 126.17 168.203 125.873 168.349 125.589C168.495 125.305 168.663 125.043 168.839 124.786L167.76 122.423C167.663 122.21 167.731 121.951 167.94 121.819L171.194 119.73C171.395 119.594 171.662 119.644 171.816 119.811L173.51 121.783C174.135 121.669 174.75 121.616 175.403 121.68L176.895 119.565C177.036 119.376 177.296 119.315 177.511 119.425L180.952 121.198C181.167 121.309 181.268 121.557 181.196 121.781L180.34 124.224C180.766 124.727 181.084 125.25 181.354 125.825L183.944 126.059C184.168 126.088 184.365 126.277 184.371 126.519L184.558 130.381C184.564 130.624 184.401 130.834 184.171 130.879L181.62 131.371Z" fill="url(#paint5_linear_723_149)"/>
</g>
<g opacity="0.15">
<path d="M336.774 153.301C333.951 151.846 331.821 149.33 330.853 146.305C329.886 143.281 330.159 139.996 331.614 137.173C333.068 134.35 335.585 132.22 338.609 131.252C341.634 130.285 344.919 130.558 347.742 132.013C350.565 133.467 352.695 135.984 353.662 139.008C354.63 142.033 354.357 145.318 352.902 148.141C351.447 150.964 348.931 153.094 345.906 154.061C342.882 155.029 339.597 154.756 336.774 153.301ZM363.334 157.249C363.957 156.339 364.55 155.413 365.067 154.409C365.584 153.405 366.01 152.355 366.421 151.258L375.392 149.607C376.205 149.449 376.78 148.706 376.759 147.849L376.099 134.193C376.079 133.336 375.398 132.639 374.588 132.568L365.449 131.707C364.479 129.706 363.369 127.826 361.845 126.079L364.872 117.44C364.995 117.05 364.976 116.629 364.818 116.252C364.66 115.875 364.374 115.565 364.01 115.379L351.845 109.111C351.085 108.72 350.164 108.938 349.666 109.605L344.389 117.085C342.081 116.858 339.906 117.046 337.714 117.417L331.708 110.474C331.18 109.855 330.218 109.706 329.508 110.187L318.004 117.576C317.264 118.041 317.024 118.956 317.366 119.71L321.229 127.973C320.575 128.945 319.966 129.901 319.449 130.905C318.932 131.908 318.522 132.929 318.142 133.964L309.124 135.707C308.311 135.865 307.706 136.592 307.756 137.465L308.417 151.121C308.437 151.978 309.133 152.645 309.927 152.746L319.083 153.576C320.037 155.607 321.147 157.488 322.671 159.235L319.644 167.874C319.389 168.666 319.746 169.543 320.506 169.935L332.671 176.202C333.431 176.594 334.352 176.376 334.85 175.709L340.127 168.229C342.45 168.426 344.61 168.268 346.818 167.867L352.808 174.84C353.352 175.428 354.298 175.608 355.008 175.127L366.512 167.738C367.221 167.257 367.492 166.358 367.15 165.604L363.334 157.249Z" fill="url(#paint6_linear_723_149)"/>
</g>
<g opacity="0.15">
<path d="M324.457 25.8662C322.508 24.8621 321.038 23.1249 320.37 21.0369C319.702 18.9489 319.891 16.6811 320.895 14.7323C321.899 12.7835 323.636 11.3134 325.724 10.6454C327.812 9.97745 330.08 10.1663 332.029 11.1704C333.978 12.1745 335.448 13.9116 336.116 15.9996C336.784 18.0876 336.595 20.3555 335.591 22.3042C334.587 24.253 332.849 25.7231 330.761 26.3911C328.673 27.0591 326.406 26.8703 324.457 25.8662ZM342.792 28.5918C343.222 27.9632 343.631 27.3239 343.988 26.6311C344.345 25.9383 344.639 25.213 344.923 24.4559L351.116 23.3163C351.677 23.2069 352.074 22.6942 352.06 22.1025L351.604 12.6752C351.59 12.0835 351.121 11.6025 350.561 11.5535L344.252 10.9594C343.582 9.57816 342.817 8.28024 341.764 7.07392L343.854 1.11028C343.939 0.84103 343.926 0.55047 343.817 0.290082C343.708 0.0296937 343.51 -0.183712 343.259 -0.312324L334.861 -4.63914C334.336 -4.90957 333.701 -4.75883 333.357 -4.29825L329.714 0.864934C328.121 0.70831 326.619 0.837986 325.106 1.09427L320.96 -3.69858C320.595 -4.1255 319.931 -4.22861 319.441 -3.89655L311.5 1.20396C310.989 1.52521 310.823 2.15695 311.059 2.67739L313.726 8.38181C313.274 9.05233 312.854 9.71268 312.497 10.4055C312.14 11.0983 311.857 11.8025 311.595 12.5176L305.37 13.7202C304.809 13.8296 304.39 14.3316 304.425 14.934L304.882 24.3614C304.895 24.9531 305.376 25.4131 305.924 25.4831L312.244 26.0561C312.903 27.4584 313.669 28.7563 314.721 29.9626L312.632 35.9263C312.456 36.4734 312.702 37.0784 313.227 37.3489L321.625 41.6757C322.149 41.9461 322.785 41.7954 323.129 41.3348L326.772 36.1716C328.376 36.3072 329.866 36.1986 331.391 35.9213L335.526 40.7351C335.901 41.141 336.554 41.2652 337.044 40.9331L344.986 35.8326C345.476 35.5005 345.663 34.8796 345.426 34.3592L342.792 28.5918Z" fill="url(#paint7_linear_723_149)"/>
</g>
<g opacity="0.15">
<path d="M496.457 10.8662C494.508 9.86207 493.038 8.12494 492.37 6.03694C491.702 3.94893 491.891 1.68109 492.895 -0.267696C493.899 -2.21648 495.636 -3.68657 497.724 -4.35456C499.812 -5.02255 502.08 -4.83373 504.029 -3.82963C505.978 -2.82553 507.448 -1.0884 508.116 0.999603C508.784 3.08761 508.595 5.35545 507.591 7.30424C506.587 9.25302 504.849 10.7231 502.761 11.3911C500.673 12.0591 498.406 11.8703 496.457 10.8662ZM514.792 13.5918C515.222 12.9632 515.631 12.3239 515.988 11.6311C516.345 10.9383 516.639 10.213 516.923 9.45594L523.116 8.31631C523.677 8.20692 524.074 7.69417 524.06 7.1025L523.604 -2.32484C523.59 -2.91651 523.121 -3.39752 522.561 -3.44654L516.252 -4.04059C515.582 -5.42184 514.817 -6.71976 513.764 -7.92608L515.854 -13.8897C515.939 -14.159 515.926 -14.4495 515.817 -14.7099C515.708 -14.9703 515.51 -15.1837 515.259 -15.3123L506.861 -19.6391C506.336 -19.9096 505.701 -19.7588 505.357 -19.2982L501.714 -14.1351C500.121 -14.2917 498.619 -14.162 497.106 -13.9057L492.96 -18.6986C492.595 -19.1255 491.931 -19.2286 491.441 -18.8966L483.5 -13.796C482.989 -13.4748 482.823 -12.843 483.059 -12.3226L485.726 -6.61819C485.274 -5.94767 484.854 -5.28732 484.497 -4.59451C484.14 -3.90171 483.857 -3.19745 483.595 -2.48238L477.37 -1.27977C476.809 -1.17038 476.39 -0.668445 476.425 -0.0659554L476.882 9.36138C476.895 9.95305 477.376 10.4131 477.924 10.4831L484.244 11.0561C484.903 12.4584 485.669 13.7563 486.721 14.9626L484.632 20.9263C484.456 21.4734 484.702 22.0784 485.227 22.3489L493.625 26.6757C494.149 26.9461 494.785 26.7954 495.129 26.3348L498.772 21.1716C500.376 21.3072 501.866 21.1986 503.391 20.9213L507.526 25.7351C507.901 26.141 508.554 26.2652 509.044 25.9331L516.986 20.8326C517.476 20.5005 517.663 19.8796 517.426 19.3592L514.792 13.5918Z" fill="url(#paint8_linear_723_149)"/>
</g>
</g>
<defs>
<linearGradient id="paint0_linear_723_149" x1="153.486" y1="71.6847" x2="371.895" y2="71.6847" gradientUnits="userSpaceOnUse">
<stop stop-color="#480CA8"/>
<stop offset="1" stop-color="#4895EF"/>
</linearGradient>
<linearGradient id="paint1_linear_723_149" x1="-32.3307" y1="151.48" x2="49.5249" y2="186.555" gradientUnits="userSpaceOnUse">
<stop stop-color="#480CA8"/>
<stop offset="1" stop-color="#4895EF"/>
</linearGradient>
<linearGradient id="paint2_linear_723_149" x1="78" y1="49.988" x2="123.202" y2="69.3572" gradientUnits="userSpaceOnUse">
<stop stop-color="#480CA8"/>
<stop offset="1" stop-color="#4895EF"/>
</linearGradient>
<linearGradient id="paint3_linear_723_149" x1="-22" y1="13.988" x2="23.2019" y2="33.3572" gradientUnits="userSpaceOnUse">
<stop stop-color="#480CA8"/>
<stop offset="1" stop-color="#4895EF"/>
</linearGradient>
<linearGradient id="paint4_linear_723_149" x1="258.863" y1="41" x2="276.074" y2="51.4741" gradientUnits="userSpaceOnUse">
<stop stop-color="#480CA8"/>
<stop offset="1" stop-color="#4895EF"/>
</linearGradient>
<linearGradient id="paint5_linear_723_149" x1="170.863" y1="116" x2="188.074" y2="126.474" gradientUnits="userSpaceOnUse">
<stop stop-color="#480CA8"/>
<stop offset="1" stop-color="#4895EF"/>
</linearGradient>
<linearGradient id="paint6_linear_723_149" x1="297" y1="157.823" x2="362.479" y2="185.881" gradientUnits="userSpaceOnUse">
<stop stop-color="#480CA8"/>
<stop offset="1" stop-color="#4895EF"/>
</linearGradient>
<linearGradient id="paint7_linear_723_149" x1="297" y1="28.988" x2="342.202" y2="48.3572" gradientUnits="userSpaceOnUse">
<stop stop-color="#480CA8"/>
<stop offset="1" stop-color="#4895EF"/>
</linearGradient>
<linearGradient id="paint8_linear_723_149" x1="469" y1="13.988" x2="514.202" y2="33.3572" gradientUnits="userSpaceOnUse">
<stop stop-color="#480CA8"/>
<stop offset="1" stop-color="#4895EF"/>
</linearGradient>
<clipPath id="clip0_723_149">
<rect width="500" height="150" fill="white"/>
</clipPath>
</defs>
</svg>
