<svg width="500" height="150" viewBox="0 0 500 150" fill="none" xmlns="http://www.w3.org/2000/svg">
<g clip-path="url(#clip0_723_129)">
<rect width="500" height="150" rx="6" fill="white"/>
<path fill-rule="evenodd" clip-rule="evenodd" d="M361.087 47.3332L373.199 53.0803C374.222 53.5658 374.029 55.0616 372.917 55.2722L359.744 57.7639C358.783 57.9456 358.017 57.6774 357.623 57.4909L349.761 53.7597C349.366 53.5723 348.884 53.5676 348.581 53.8833C348.442 54.0282 348.322 54.1917 348.224 54.3701C348.018 54.7467 348.191 55.1734 348.356 55.5797C348.377 55.6319 348.398 55.6837 348.418 55.7351C348.508 55.9645 348.545 56.2203 348.51 56.4886C348.484 56.69 348.421 56.874 348.329 57.0372C348.299 57.0921 348.267 57.1473 348.235 57.2027C348 57.613 347.755 58.0399 347.791 58.504L348.169 63.3117C348.208 63.8049 347.805 64.2162 347.341 64.1565L344.798 63.8291C344.334 63.7694 344.048 63.2693 344.211 62.8021L345.795 58.2469C345.947 57.8073 345.818 57.3322 345.695 56.8757C345.678 56.8139 345.661 56.7525 345.645 56.6916C345.598 56.5105 345.584 56.3165 345.609 56.1151C345.651 55.794 345.785 55.5146 345.979 55.2943C346.259 54.9757 346.554 54.6209 346.695 54.2209C346.984 53.4028 346.803 52.3562 346.02 51.9843L345.512 51.7433C344.49 51.2584 344.682 49.762 345.794 49.5518L358.967 47.0601C359.684 46.9243 360.427 47.02 361.087 47.3332ZM357.008 58.9065C357.562 59.1693 358.633 59.5438 359.981 59.2892L365.196 58.3025C366.041 58.1427 366.821 58.7959 366.812 59.6557L366.801 60.6421H369.872C370.625 60.6421 371.235 61.252 371.235 62.0043V64.6611C371.235 65.4134 370.625 66.0233 369.872 66.0233H357.274C356.521 66.0233 355.911 66.6332 355.911 67.3855V70.9529C355.911 71.7052 356.521 72.3151 357.274 72.3151H368.082C368.834 72.3151 369.444 72.925 369.444 73.6773V76.1685C369.444 76.9208 368.834 77.5307 368.082 77.5307H357.274C356.521 77.5307 355.911 78.1406 355.911 78.8929V82.8742C355.911 83.6266 356.521 84.2365 357.274 84.2365H370.414C371.166 84.2365 371.776 84.8464 371.776 85.5987V88.2554C371.776 89.0077 371.166 89.6176 370.414 89.6176H350.57C349.817 89.6176 349.207 89.0077 349.207 88.2554V62.0043C349.207 61.7795 349.262 61.5674 349.358 61.3805C349.36 61.3502 349.362 61.32 349.366 61.2899L350.307 57.5311C350.516 56.6971 351.436 56.2627 352.213 56.6313L357.008 58.9065ZM241.221 88.2103C243.636 89.4797 246.329 90.1144 249.299 90.1144C251.825 90.1144 254.115 89.6728 256.17 88.7898C257.815 88.0823 259.247 87.118 260.465 85.8969C260.977 85.3841 260.915 84.5564 260.381 84.0667L258.039 81.9173C257.472 81.3971 256.593 81.4579 256.023 81.9749C254.24 83.593 252.124 84.402 249.674 84.402C247.869 84.402 246.259 84.0157 244.844 83.243C243.428 82.4427 242.318 81.3389 241.513 79.9315C240.735 78.5241 240.347 76.9236 240.347 75.1299C240.347 73.3362 240.735 71.7356 241.513 70.3282C242.318 68.9208 243.428 67.8308 244.844 67.0581C246.259 66.2578 247.869 65.8577 249.674 65.8577C252.124 65.8577 254.24 66.6569 256.023 68.2554C256.593 68.7668 257.468 68.8248 258.032 68.3068L260.373 66.1588C260.91 65.6662 260.969 64.8324 260.45 64.3212C259.235 63.1249 257.808 62.1745 256.17 61.47C254.143 60.5869 251.867 60.1454 249.341 60.1454C246.343 60.1454 243.636 60.7939 241.221 62.0909C238.834 63.3603 236.946 65.1402 235.558 67.4307C234.198 69.6935 233.518 72.2599 233.518 75.1299C233.518 77.9998 234.198 80.58 235.558 82.8705C236.946 85.1333 238.834 86.9132 241.221 88.2103ZM162.766 85.5987C162.766 84.8464 162.156 84.2365 161.404 84.2365H148.264C147.511 84.2365 146.901 83.6266 146.901 82.8742V78.8929C146.901 78.1406 147.511 77.5307 148.264 77.5307H159.072C159.824 77.5307 160.434 76.9208 160.434 76.1685V73.6773C160.434 72.925 159.824 72.3151 159.072 72.3151H148.264C147.511 72.3151 146.901 71.7052 146.901 70.9529V67.3855C146.901 66.6332 147.511 66.0233 148.264 66.0233H160.863C161.615 66.0233 162.225 65.4134 162.225 64.6611V62.0043C162.225 61.252 161.615 60.6421 160.863 60.6421H141.56C140.807 60.6421 140.198 61.252 140.198 62.0043V88.2554C140.198 89.0077 140.807 89.6176 141.56 89.6176H161.404C162.156 89.6176 162.766 89.0077 162.766 88.2554V85.5987ZM169.496 60.6421C168.743 60.6421 168.133 61.252 168.133 62.0043V88.2554C168.133 89.0077 168.743 89.6176 169.496 89.6176H181.375C184.539 89.6176 187.329 89.0243 189.744 87.8377C192.187 86.6235 194.075 84.9264 195.407 82.7463C196.767 80.5662 197.447 78.0274 197.447 75.1299C197.447 72.2323 196.767 69.6935 195.407 67.5135C194.075 65.3334 192.187 63.6501 189.744 62.4634C187.329 61.2492 184.539 60.6421 181.375 60.6421H169.496ZM187.995 81.7115C186.274 83.312 183.956 84.1123 181.041 84.1123H176.241C175.489 84.1123 174.879 83.5024 174.879 82.7501V67.5097C174.879 66.7574 175.489 66.1475 176.241 66.1475H181.041C183.956 66.1475 186.274 66.9615 187.995 68.5897C189.744 70.1902 190.619 72.3703 190.619 75.1299C190.619 77.8894 189.744 80.0833 187.995 81.7115ZM215.484 90.1144C211.32 90.1144 208.073 88.9691 205.741 86.6787C203.437 84.3882 202.285 81.1181 202.285 76.8684V62.0043C202.285 61.252 202.895 60.6421 203.647 60.6421H207.668C208.42 60.6421 209.03 61.252 209.03 62.0043V76.62C209.03 81.808 211.196 84.402 215.526 84.402C217.636 84.402 219.246 83.7811 220.356 82.5393C221.467 81.2699 222.022 79.2968 222.022 76.62V62.0043C222.022 61.252 222.632 60.6421 223.384 60.6421H227.322C228.074 60.6421 228.684 61.252 228.684 62.0043V76.8684C228.684 81.1181 227.518 84.3882 225.186 86.6787C222.882 88.9691 219.648 90.1144 215.484 90.1144ZM284.863 84.2478C284.652 83.7397 284.156 83.4086 283.606 83.4086H271.891C271.34 83.4086 270.844 83.7397 270.633 84.2478L268.749 88.7784C268.538 89.2865 268.042 89.6176 267.491 89.6176H263.592C262.604 89.6176 261.945 88.5994 262.349 87.6981L274.119 61.447C274.338 60.9573 274.825 60.6421 275.362 60.6421H280.261C280.797 60.6421 281.283 60.9566 281.503 61.4455L293.311 87.6966C293.716 88.598 293.057 89.6176 292.068 89.6176H288.005C287.455 89.6176 286.958 89.2865 286.747 88.7784L284.863 84.2478ZM280.348 78.3172C281.32 78.3172 281.979 77.3283 281.605 76.4311L279.026 70.2418C278.561 69.124 276.977 69.124 276.511 70.2418L273.933 76.4311C273.559 77.3283 274.218 78.3172 275.19 78.3172H280.348ZM296.959 88.7898C297.736 89.5624 298.694 89.9488 299.832 89.9488C300.97 89.9488 301.928 89.5624 302.705 88.7898C303.483 88.0171 303.871 87.0512 303.871 85.8922C303.871 84.7056 303.483 83.7535 302.705 83.036C301.928 82.291 300.97 81.9184 299.832 81.9184C298.694 81.9184 297.736 82.291 296.959 83.036C296.182 83.7535 295.793 84.7056 295.793 85.8922C295.793 87.0512 296.182 88.0171 296.959 88.7898ZM337.322 89.6176C336.571 89.6176 335.961 89.0097 335.96 88.2587L335.933 77.1352C335.93 75.7547 334.111 75.2542 333.402 76.4385L327.74 85.8922C327.494 86.303 327.05 86.5545 326.571 86.5545H325.067C324.593 86.5545 324.153 86.3078 323.905 85.9033L318.292 76.7299C317.574 75.5567 315.768 76.0655 315.768 77.4409V88.2554C315.768 89.0077 315.158 89.6176 314.406 89.6176H310.801C310.048 89.6176 309.439 89.0077 309.439 88.2554V62.0043C309.439 61.252 310.048 60.6421 310.801 60.6421H314.251C314.727 60.6421 315.169 60.891 315.416 61.2985L324.754 76.7106C325.286 77.5892 326.562 77.5848 327.089 76.7026L336.274 61.3064C336.52 60.8944 336.965 60.6421 337.444 60.6421H340.85C341.601 60.6421 342.21 61.2496 342.213 62.0004L342.288 88.2515C342.29 89.0054 341.68 89.6176 340.926 89.6176H337.322Z" fill="url(#paint0_linear_723_129)"/>
<path d="M162.016 97.636C162.232 97.26 162.552 96.948 162.976 96.7C163.408 96.444 163.908 96.316 164.476 96.316C165.06 96.316 165.588 96.456 166.06 96.736C166.54 97.016 166.916 97.412 167.188 97.924C167.46 98.428 167.596 99.016 167.596 99.688C167.596 100.352 167.46 100.944 167.188 101.464C166.916 101.984 166.54 102.388 166.06 102.676C165.588 102.964 165.06 103.108 164.476 103.108C163.916 103.108 163.42 102.984 162.988 102.736C162.564 102.48 162.24 102.164 162.016 101.788V106.12H160.924V96.424H162.016V97.636ZM166.48 99.688C166.48 99.192 166.38 98.76 166.18 98.392C165.98 98.024 165.708 97.744 165.364 97.552C165.028 97.36 164.656 97.264 164.248 97.264C163.848 97.264 163.476 97.364 163.132 97.564C162.796 97.756 162.524 98.04 162.316 98.416C162.116 98.784 162.016 99.212 162.016 99.7C162.016 100.196 162.116 100.632 162.316 101.008C162.524 101.376 162.796 101.66 163.132 101.86C163.476 102.052 163.848 102.148 164.248 102.148C164.656 102.148 165.028 102.052 165.364 101.86C165.708 101.66 165.98 101.376 166.18 101.008C166.38 100.632 166.48 100.192 166.48 99.688ZM170.125 94.12V103H169.033V94.12H170.125ZM171.578 99.688C171.578 99.016 171.714 98.428 171.986 97.924C172.258 97.412 172.63 97.016 173.102 96.736C173.582 96.456 174.114 96.316 174.698 96.316C175.274 96.316 175.774 96.44 176.198 96.688C176.622 96.936 176.938 97.248 177.146 97.624V96.424H178.25V103H177.146V101.776C176.93 102.16 176.606 102.48 176.174 102.736C175.75 102.984 175.254 103.108 174.686 103.108C174.102 103.108 173.574 102.964 173.102 102.676C172.63 102.388 172.258 101.984 171.986 101.464C171.714 100.944 171.578 100.352 171.578 99.688ZM177.146 99.7C177.146 99.204 177.046 98.772 176.846 98.404C176.646 98.036 176.374 97.756 176.03 97.564C175.694 97.364 175.322 97.264 174.914 97.264C174.506 97.264 174.134 97.36 173.798 97.552C173.462 97.744 173.194 98.024 172.994 98.392C172.794 98.76 172.694 99.192 172.694 99.688C172.694 100.192 172.794 100.632 172.994 101.008C173.194 101.376 173.462 101.66 173.798 101.86C174.134 102.052 174.506 102.148 174.914 102.148C175.322 102.148 175.694 102.052 176.03 101.86C176.374 101.66 176.646 101.376 176.846 101.008C177.046 100.632 177.146 100.196 177.146 99.7ZM181.428 97.324V101.2C181.428 101.52 181.496 101.748 181.632 101.884C181.768 102.012 182.004 102.076 182.34 102.076H183.144V103H182.16C181.552 103 181.096 102.86 180.792 102.58C180.488 102.3 180.336 101.84 180.336 101.2V97.324H179.484V96.424H180.336V94.768H181.428V96.424H183.144V97.324H181.428ZM184.059 99.688C184.059 99.016 184.195 98.428 184.467 97.924C184.739 97.412 185.111 97.016 185.583 96.736C186.063 96.456 186.595 96.316 187.179 96.316C187.755 96.316 188.255 96.44 188.679 96.688C189.103 96.936 189.419 97.248 189.627 97.624V96.424H190.731V103H189.627V101.776C189.411 102.16 189.087 102.48 188.655 102.736C188.231 102.984 187.735 103.108 187.167 103.108C186.583 103.108 186.055 102.964 185.583 102.676C185.111 102.388 184.739 101.984 184.467 101.464C184.195 100.944 184.059 100.352 184.059 99.688ZM189.627 99.7C189.627 99.204 189.527 98.772 189.327 98.404C189.127 98.036 188.855 97.756 188.511 97.564C188.175 97.364 187.803 97.264 187.395 97.264C186.987 97.264 186.615 97.36 186.279 97.552C185.943 97.744 185.675 98.024 185.475 98.392C185.275 98.76 185.175 99.192 185.175 99.688C185.175 100.192 185.275 100.632 185.475 101.008C185.675 101.376 185.943 101.66 186.279 101.86C186.615 102.052 186.987 102.148 187.395 102.148C187.803 102.148 188.175 102.052 188.511 101.86C188.855 101.66 189.127 101.376 189.327 101.008C189.527 100.632 189.627 100.196 189.627 99.7ZM195.252 97.324H193.872V103H192.78V97.324H191.928V96.424H192.78V95.956C192.78 95.22 192.968 94.684 193.344 94.348C193.728 94.004 194.34 93.832 195.18 93.832V94.744C194.7 94.744 194.36 94.84 194.16 95.032C193.968 95.216 193.872 95.524 193.872 95.956V96.424H195.252V97.324ZM199.393 103.108C198.777 103.108 198.217 102.968 197.713 102.688C197.217 102.408 196.825 102.012 196.537 101.5C196.257 100.98 196.117 100.38 196.117 99.7C196.117 99.028 196.261 98.436 196.549 97.924C196.845 97.404 197.245 97.008 197.749 96.736C198.253 96.456 198.817 96.316 199.441 96.316C200.065 96.316 200.629 96.456 201.133 96.736C201.637 97.008 202.033 97.4 202.321 97.912C202.617 98.424 202.765 99.02 202.765 99.7C202.765 100.38 202.613 100.98 202.309 101.5C202.013 102.012 201.609 102.408 201.097 102.688C200.585 102.968 200.017 103.108 199.393 103.108ZM199.393 102.148C199.785 102.148 200.153 102.056 200.497 101.872C200.841 101.688 201.117 101.412 201.325 101.044C201.541 100.676 201.649 100.228 201.649 99.7C201.649 99.172 201.545 98.724 201.337 98.356C201.129 97.988 200.857 97.716 200.521 97.54C200.185 97.356 199.821 97.264 199.429 97.264C199.029 97.264 198.661 97.356 198.325 97.54C197.997 97.716 197.733 97.988 197.533 98.356C197.333 98.724 197.233 99.172 197.233 99.7C197.233 100.236 197.329 100.688 197.521 101.056C197.721 101.424 197.985 101.7 198.313 101.884C198.641 102.06 199.001 102.148 199.393 102.148ZM205.293 97.492C205.485 97.116 205.757 96.824 206.109 96.616C206.469 96.408 206.905 96.304 207.417 96.304V97.432H207.129C205.905 97.432 205.293 98.096 205.293 99.424V103H204.201V96.424H205.293V97.492ZM216.586 96.304C217.098 96.304 217.554 96.412 217.954 96.628C218.354 96.836 218.67 97.152 218.902 97.576C219.134 98 219.25 98.516 219.25 99.124V103H218.17V99.28C218.17 98.624 218.006 98.124 217.678 97.78C217.358 97.428 216.922 97.252 216.37 97.252C215.802 97.252 215.35 97.436 215.014 97.804C214.678 98.164 214.51 98.688 214.51 99.376V103H213.43V99.28C213.43 98.624 213.266 98.124 212.938 97.78C212.618 97.428 212.182 97.252 211.63 97.252C211.062 97.252 210.61 97.436 210.274 97.804C209.938 98.164 209.77 98.688 209.77 99.376V103H208.678V96.424H209.77V97.372C209.986 97.028 210.274 96.764 210.634 96.58C211.002 96.396 211.406 96.304 211.846 96.304C212.398 96.304 212.886 96.428 213.31 96.676C213.734 96.924 214.05 97.288 214.258 97.768C214.442 97.304 214.746 96.944 215.17 96.688C215.594 96.432 216.066 96.304 216.586 96.304ZM220.633 99.688C220.633 99.016 220.769 98.428 221.041 97.924C221.313 97.412 221.685 97.016 222.157 96.736C222.637 96.456 223.169 96.316 223.753 96.316C224.329 96.316 224.829 96.44 225.253 96.688C225.677 96.936 225.993 97.248 226.201 97.624V96.424H227.305V103H226.201V101.776C225.985 102.16 225.661 102.48 225.229 102.736C224.805 102.984 224.309 103.108 223.741 103.108C223.157 103.108 222.629 102.964 222.157 102.676C221.685 102.388 221.313 101.984 221.041 101.464C220.769 100.944 220.633 100.352 220.633 99.688ZM226.201 99.7C226.201 99.204 226.101 98.772 225.901 98.404C225.701 98.036 225.429 97.756 225.085 97.564C224.749 97.364 224.377 97.264 223.969 97.264C223.561 97.264 223.189 97.36 222.853 97.552C222.517 97.744 222.249 98.024 222.049 98.392C221.849 98.76 221.749 99.192 221.749 99.688C221.749 100.192 221.849 100.632 222.049 101.008C222.249 101.376 222.517 101.66 222.853 101.86C223.189 102.052 223.561 102.148 223.969 102.148C224.377 102.148 224.749 102.052 225.085 101.86C225.429 101.66 225.701 101.376 225.901 101.008C226.101 100.632 226.201 100.196 226.201 99.7ZM231.942 99.688C231.942 99.016 232.078 98.428 232.35 97.924C232.622 97.412 232.994 97.016 233.466 96.736C233.946 96.456 234.482 96.316 235.074 96.316C235.586 96.316 236.062 96.436 236.502 96.676C236.942 96.908 237.278 97.216 237.51 97.6V94.12H238.614V103H237.51V101.764C237.294 102.156 236.974 102.48 236.55 102.736C236.126 102.984 235.63 103.108 235.062 103.108C234.478 103.108 233.946 102.964 233.466 102.676C232.994 102.388 232.622 101.984 232.35 101.464C232.078 100.944 231.942 100.352 231.942 99.688ZM237.51 99.7C237.51 99.204 237.41 98.772 237.21 98.404C237.01 98.036 236.738 97.756 236.394 97.564C236.058 97.364 235.686 97.264 235.278 97.264C234.87 97.264 234.498 97.36 234.162 97.552C233.826 97.744 233.558 98.024 233.358 98.392C233.158 98.76 233.058 99.192 233.058 99.688C233.058 100.192 233.158 100.632 233.358 101.008C233.558 101.376 233.826 101.66 234.162 101.86C234.498 102.052 234.87 102.148 235.278 102.148C235.686 102.148 236.058 102.052 236.394 101.86C236.738 101.66 237.01 101.376 237.21 101.008C237.41 100.632 237.51 100.196 237.51 99.7ZM246.459 99.46C246.459 99.668 246.447 99.888 246.423 100.12H241.167C241.207 100.768 241.427 101.276 241.827 101.644C242.235 102.004 242.727 102.184 243.303 102.184C243.775 102.184 244.167 102.076 244.479 101.86C244.799 101.636 245.023 101.34 245.151 100.972H246.327C246.151 101.604 245.799 102.12 245.271 102.52C244.743 102.912 244.087 103.108 243.303 103.108C242.679 103.108 242.119 102.968 241.623 102.688C241.135 102.408 240.751 102.012 240.471 101.5C240.191 100.98 240.051 100.38 240.051 99.7C240.051 99.02 240.187 98.424 240.459 97.912C240.731 97.4 241.111 97.008 241.599 96.736C242.095 96.456 242.663 96.316 243.303 96.316C243.927 96.316 244.479 96.452 244.959 96.724C245.439 96.996 245.807 97.372 246.063 97.852C246.327 98.324 246.459 98.86 246.459 99.46ZM245.331 99.232C245.331 98.816 245.239 98.46 245.055 98.164C244.871 97.86 244.619 97.632 244.299 97.48C243.987 97.32 243.639 97.24 243.255 97.24C242.703 97.24 242.231 97.416 241.839 97.768C241.455 98.12 241.235 98.608 241.179 99.232H245.331ZM253.812 96.316C254.38 96.316 254.876 96.44 255.3 96.688C255.732 96.936 256.052 97.248 256.26 97.624V96.424H257.364V103.144C257.364 103.744 257.236 104.276 256.98 104.74C256.724 105.212 256.356 105.58 255.876 105.844C255.404 106.108 254.852 106.24 254.22 106.24C253.356 106.24 252.636 106.036 252.06 105.628C251.484 105.22 251.144 104.664 251.04 103.96H252.12C252.24 104.36 252.488 104.68 252.864 104.92C253.24 105.168 253.692 105.292 254.22 105.292C254.82 105.292 255.308 105.104 255.684 104.728C256.068 104.352 256.26 103.824 256.26 103.144V101.764C256.044 102.148 255.724 102.468 255.3 102.724C254.876 102.98 254.38 103.108 253.812 103.108C253.228 103.108 252.696 102.964 252.216 102.676C251.744 102.388 251.372 101.984 251.1 101.464C250.828 100.944 250.692 100.352 250.692 99.688C250.692 99.016 250.828 98.428 251.1 97.924C251.372 97.412 251.744 97.016 252.216 96.736C252.696 96.456 253.228 96.316 253.812 96.316ZM256.26 99.7C256.26 99.204 256.16 98.772 255.96 98.404C255.76 98.036 255.488 97.756 255.144 97.564C254.808 97.364 254.436 97.264 254.028 97.264C253.62 97.264 253.248 97.36 252.912 97.552C252.576 97.744 252.308 98.024 252.108 98.392C251.908 98.76 251.808 99.192 251.808 99.688C251.808 100.192 251.908 100.632 252.108 101.008C252.308 101.376 252.576 101.66 252.912 101.86C253.248 102.052 253.62 102.148 254.028 102.148C254.436 102.148 254.808 102.052 255.144 101.86C255.488 101.66 255.76 101.376 255.96 101.008C256.16 100.632 256.26 100.196 256.26 99.7ZM265.209 99.46C265.209 99.668 265.197 99.888 265.173 100.12H259.917C259.957 100.768 260.177 101.276 260.577 101.644C260.985 102.004 261.477 102.184 262.053 102.184C262.525 102.184 262.917 102.076 263.229 101.86C263.549 101.636 263.773 101.34 263.901 100.972H265.077C264.901 101.604 264.549 102.12 264.021 102.52C263.493 102.912 262.837 103.108 262.053 103.108C261.429 103.108 260.869 102.968 260.373 102.688C259.885 102.408 259.501 102.012 259.221 101.5C258.941 100.98 258.801 100.38 258.801 99.7C258.801 99.02 258.937 98.424 259.209 97.912C259.481 97.4 259.861 97.008 260.349 96.736C260.845 96.456 261.413 96.316 262.053 96.316C262.677 96.316 263.229 96.452 263.709 96.724C264.189 96.996 264.557 97.372 264.813 97.852C265.077 98.324 265.209 98.86 265.209 99.46ZM264.081 99.232C264.081 98.816 263.989 98.46 263.805 98.164C263.621 97.86 263.369 97.632 263.049 97.48C262.737 97.32 262.389 97.24 262.005 97.24C261.453 97.24 260.981 97.416 260.589 97.768C260.205 98.12 259.985 98.608 259.929 99.232H264.081ZM268.978 103.108C268.474 103.108 268.022 103.024 267.622 102.856C267.222 102.68 266.906 102.44 266.674 102.136C266.442 101.824 266.314 101.468 266.29 101.068H267.418C267.45 101.396 267.602 101.664 267.874 101.872C268.154 102.08 268.518 102.184 268.966 102.184C269.382 102.184 269.71 102.092 269.95 101.908C270.19 101.724 270.31 101.492 270.31 101.212C270.31 100.924 270.182 100.712 269.926 100.576C269.67 100.432 269.274 100.292 268.738 100.156C268.25 100.028 267.85 99.9 267.538 99.772C267.234 99.636 266.97 99.44 266.746 99.184C266.53 98.92 266.422 98.576 266.422 98.152C266.422 97.816 266.522 97.508 266.722 97.228C266.922 96.948 267.206 96.728 267.574 96.568C267.942 96.4 268.362 96.316 268.834 96.316C269.562 96.316 270.15 96.5 270.598 96.868C271.046 97.236 271.286 97.74 271.318 98.38H270.226C270.202 98.036 270.062 97.76 269.806 97.552C269.558 97.344 269.222 97.24 268.798 97.24C268.406 97.24 268.094 97.324 267.862 97.492C267.63 97.66 267.514 97.88 267.514 98.152C267.514 98.368 267.582 98.548 267.718 98.692C267.862 98.828 268.038 98.94 268.246 99.028C268.462 99.108 268.758 99.2 269.134 99.304C269.606 99.432 269.99 99.56 270.286 99.688C270.582 99.808 270.834 99.992 271.042 100.24C271.258 100.488 271.37 100.812 271.378 101.212C271.378 101.572 271.278 101.896 271.078 102.184C270.878 102.472 270.594 102.7 270.226 102.868C269.866 103.028 269.45 103.108 268.978 103.108ZM274.252 97.324V101.2C274.252 101.52 274.32 101.748 274.456 101.884C274.592 102.012 274.828 102.076 275.164 102.076H275.968V103H274.984C274.376 103 273.92 102.86 273.616 102.58C273.312 102.3 273.16 101.84 273.16 101.2V97.324H272.308V96.424H273.16V94.768H274.252V96.424H275.968V97.324H274.252ZM276.883 99.688C276.883 99.016 277.019 98.428 277.291 97.924C277.563 97.412 277.935 97.016 278.407 96.736C278.887 96.456 279.419 96.316 280.003 96.316C280.579 96.316 281.079 96.44 281.503 96.688C281.927 96.936 282.243 97.248 282.451 97.624V96.424H283.555V103H282.451V101.776C282.235 102.16 281.911 102.48 281.479 102.736C281.055 102.984 280.559 103.108 279.991 103.108C279.407 103.108 278.879 102.964 278.407 102.676C277.935 102.388 277.563 101.984 277.291 101.464C277.019 100.944 276.883 100.352 276.883 99.688ZM282.451 99.7C282.451 99.204 282.351 98.772 282.151 98.404C281.951 98.036 281.679 97.756 281.335 97.564C280.999 97.364 280.627 97.264 280.219 97.264C279.811 97.264 279.439 97.36 279.103 97.552C278.767 97.744 278.499 98.024 278.299 98.392C278.099 98.76 277.999 99.192 277.999 99.688C277.999 100.192 278.099 100.632 278.299 101.008C278.499 101.376 278.767 101.66 279.103 101.86C279.439 102.052 279.811 102.148 280.219 102.148C280.627 102.148 280.999 102.052 281.335 101.86C281.679 101.66 281.951 101.376 282.151 101.008C282.351 100.632 282.451 100.196 282.451 99.7ZM278.671 95.716C278.727 95.308 278.859 94.996 279.067 94.78C279.283 94.564 279.551 94.456 279.871 94.456C280.023 94.456 280.151 94.484 280.255 94.54C280.367 94.588 280.499 94.66 280.651 94.756C280.763 94.836 280.863 94.9 280.951 94.948C281.039 94.988 281.135 95.008 281.239 95.008C281.375 95.008 281.491 94.964 281.587 94.876C281.683 94.788 281.743 94.66 281.767 94.492H282.391C282.343 94.892 282.211 95.2 281.995 95.416C281.779 95.632 281.511 95.74 281.191 95.74C281.039 95.74 280.903 95.716 280.783 95.668C280.671 95.612 280.543 95.532 280.399 95.428C280.271 95.348 280.167 95.288 280.087 95.248C280.015 95.208 279.927 95.188 279.823 95.188C279.687 95.188 279.571 95.232 279.475 95.32C279.387 95.408 279.331 95.54 279.307 95.716H278.671ZM288.268 103.108C287.652 103.108 287.092 102.968 286.588 102.688C286.092 102.408 285.7 102.012 285.412 101.5C285.132 100.98 284.992 100.38 284.992 99.7C284.992 99.028 285.136 98.436 285.424 97.924C285.72 97.404 286.12 97.008 286.624 96.736C287.128 96.456 287.692 96.316 288.316 96.316C288.94 96.316 289.504 96.456 290.008 96.736C290.512 97.008 290.908 97.4 291.196 97.912C291.492 98.424 291.64 99.02 291.64 99.7C291.64 100.38 291.488 100.98 291.184 101.5C290.888 102.012 290.484 102.408 289.972 102.688C289.46 102.968 288.892 103.108 288.268 103.108ZM288.268 102.148C288.66 102.148 289.028 102.056 289.372 101.872C289.716 101.688 289.992 101.412 290.2 101.044C290.416 100.676 290.524 100.228 290.524 99.7C290.524 99.172 290.42 98.724 290.212 98.356C290.004 97.988 289.732 97.716 289.396 97.54C289.06 97.356 288.696 97.264 288.304 97.264C287.904 97.264 287.536 97.356 287.2 97.54C286.872 97.716 286.608 97.988 286.408 98.356C286.208 98.724 286.108 99.172 286.108 99.7C286.108 100.236 286.204 100.688 286.396 101.056C286.596 101.424 286.86 101.7 287.188 101.884C287.516 102.06 287.876 102.148 288.268 102.148ZM302.275 99.46C302.275 99.668 302.263 99.888 302.239 100.12H296.983C297.023 100.768 297.243 101.276 297.643 101.644C298.051 102.004 298.543 102.184 299.119 102.184C299.591 102.184 299.983 102.076 300.295 101.86C300.615 101.636 300.839 101.34 300.967 100.972H302.143C301.967 101.604 301.615 102.12 301.087 102.52C300.559 102.912 299.903 103.108 299.119 103.108C298.495 103.108 297.935 102.968 297.439 102.688C296.951 102.408 296.567 102.012 296.287 101.5C296.007 100.98 295.867 100.38 295.867 99.7C295.867 99.02 296.003 98.424 296.275 97.912C296.547 97.4 296.927 97.008 297.415 96.736C297.911 96.456 298.479 96.316 299.119 96.316C299.743 96.316 300.295 96.452 300.775 96.724C301.255 96.996 301.623 97.372 301.879 97.852C302.143 98.324 302.275 98.86 302.275 99.46ZM301.147 99.232C301.147 98.816 301.055 98.46 300.871 98.164C300.687 97.86 300.435 97.632 300.115 97.48C299.803 97.32 299.455 97.24 299.071 97.24C298.519 97.24 298.047 97.416 297.655 97.768C297.271 98.12 297.051 98.608 296.995 99.232H301.147ZM306.045 103.108C305.541 103.108 305.089 103.024 304.689 102.856C304.289 102.68 303.973 102.44 303.741 102.136C303.509 101.824 303.381 101.468 303.357 101.068H304.485C304.517 101.396 304.669 101.664 304.941 101.872C305.221 102.08 305.585 102.184 306.033 102.184C306.449 102.184 306.777 102.092 307.017 101.908C307.257 101.724 307.377 101.492 307.377 101.212C307.377 100.924 307.249 100.712 306.993 100.576C306.737 100.432 306.341 100.292 305.805 100.156C305.317 100.028 304.917 99.9 304.605 99.772C304.301 99.636 304.037 99.44 303.813 99.184C303.597 98.92 303.489 98.576 303.489 98.152C303.489 97.816 303.589 97.508 303.789 97.228C303.989 96.948 304.273 96.728 304.641 96.568C305.009 96.4 305.429 96.316 305.901 96.316C306.629 96.316 307.217 96.5 307.665 96.868C308.113 97.236 308.353 97.74 308.385 98.38H307.293C307.269 98.036 307.129 97.76 306.873 97.552C306.625 97.344 306.289 97.24 305.865 97.24C305.473 97.24 305.161 97.324 304.929 97.492C304.697 97.66 304.581 97.88 304.581 98.152C304.581 98.368 304.649 98.548 304.785 98.692C304.929 98.828 305.105 98.94 305.313 99.028C305.529 99.108 305.825 99.2 306.201 99.304C306.673 99.432 307.057 99.56 307.353 99.688C307.649 99.808 307.901 99.992 308.109 100.24C308.325 100.488 308.437 100.812 308.445 101.212C308.445 101.572 308.345 101.896 308.145 102.184C307.945 102.472 307.661 102.7 307.293 102.868C306.933 103.028 306.517 103.108 306.045 103.108ZM309.578 99.7C309.578 99.02 309.714 98.428 309.986 97.924C310.258 97.412 310.634 97.016 311.114 96.736C311.602 96.456 312.158 96.316 312.782 96.316C313.59 96.316 314.254 96.512 314.774 96.904C315.302 97.296 315.65 97.84 315.818 98.536H314.642C314.53 98.136 314.31 97.82 313.982 97.588C313.662 97.356 313.262 97.24 312.782 97.24C312.158 97.24 311.654 97.456 311.27 97.888C310.886 98.312 310.694 98.916 310.694 99.7C310.694 100.492 310.886 101.104 311.27 101.536C311.654 101.968 312.158 102.184 312.782 102.184C313.262 102.184 313.662 102.072 313.982 101.848C314.302 101.624 314.522 101.304 314.642 100.888H315.818C315.642 101.56 315.29 102.1 314.762 102.508C314.234 102.908 313.574 103.108 312.782 103.108C312.158 103.108 311.602 102.968 311.114 102.688C310.634 102.408 310.258 102.012 309.986 101.5C309.714 100.988 309.578 100.388 309.578 99.7ZM320.143 103.108C319.527 103.108 318.967 102.968 318.463 102.688C317.967 102.408 317.575 102.012 317.287 101.5C317.007 100.98 316.867 100.38 316.867 99.7C316.867 99.028 317.011 98.436 317.299 97.924C317.595 97.404 317.995 97.008 318.499 96.736C319.003 96.456 319.567 96.316 320.191 96.316C320.815 96.316 321.379 96.456 321.883 96.736C322.387 97.008 322.783 97.4 323.071 97.912C323.367 98.424 323.515 99.02 323.515 99.7C323.515 100.38 323.363 100.98 323.059 101.5C322.763 102.012 322.359 102.408 321.847 102.688C321.335 102.968 320.767 103.108 320.143 103.108ZM320.143 102.148C320.535 102.148 320.903 102.056 321.247 101.872C321.591 101.688 321.867 101.412 322.075 101.044C322.291 100.676 322.399 100.228 322.399 99.7C322.399 99.172 322.295 98.724 322.087 98.356C321.879 97.988 321.607 97.716 321.271 97.54C320.935 97.356 320.571 97.264 320.179 97.264C319.779 97.264 319.411 97.356 319.075 97.54C318.747 97.716 318.483 97.988 318.283 98.356C318.083 98.724 317.983 99.172 317.983 99.7C317.983 100.236 318.079 100.688 318.271 101.056C318.471 101.424 318.735 101.7 319.063 101.884C319.391 102.06 319.751 102.148 320.143 102.148ZM326.043 94.12V103H324.951V94.12H326.043ZM327.496 99.688C327.496 99.016 327.632 98.428 327.904 97.924C328.176 97.412 328.548 97.016 329.02 96.736C329.5 96.456 330.032 96.316 330.616 96.316C331.192 96.316 331.692 96.44 332.116 96.688C332.54 96.936 332.856 97.248 333.064 97.624V96.424H334.168V103H333.064V101.776C332.848 102.16 332.524 102.48 332.092 102.736C331.668 102.984 331.172 103.108 330.604 103.108C330.02 103.108 329.492 102.964 329.02 102.676C328.548 102.388 328.176 101.984 327.904 101.464C327.632 100.944 327.496 100.352 327.496 99.688ZM333.064 99.7C333.064 99.204 332.964 98.772 332.764 98.404C332.564 98.036 332.292 97.756 331.948 97.564C331.612 97.364 331.24 97.264 330.832 97.264C330.424 97.264 330.052 97.36 329.716 97.552C329.38 97.744 329.112 98.024 328.912 98.392C328.712 98.76 328.612 99.192 328.612 99.688C328.612 100.192 328.712 100.632 328.912 101.008C329.112 101.376 329.38 101.66 329.716 101.86C330.052 102.052 330.424 102.148 330.832 102.148C331.24 102.148 331.612 102.052 331.948 101.86C332.292 101.66 332.564 101.376 332.764 101.008C332.964 100.632 333.064 100.196 333.064 99.7ZM337.106 97.492C337.298 97.116 337.57 96.824 337.922 96.616C338.282 96.408 338.718 96.304 339.23 96.304V97.432H338.942C337.718 97.432 337.106 98.096 337.106 99.424V103H336.014V96.424H337.106V97.492Z" fill="#282828"/>
<g opacity="0.15">
<path d="M85.2319 138.823L59.1073 105.899C57.6837 104.105 55.725 102.807 53.5189 102.197L13.0112 90.984C9.59302 90.0375 6.98095 93.9808 9.18582 96.7591L12.547 100.995C13.1303 101.73 12.8108 102.825 11.9805 103.262C10.5191 104.031 9.1995 105.093 8.11394 106.44C7.82594 106.797 7.3916 107.001 6.93549 107.051C5.57189 107.201 4.25937 107.916 3.41305 109.194C2.68627 110.291 2.49009 111.539 2.69538 112.703C2.78711 113.224 2.67602 113.777 2.30004 114.148L-9.77245 126.072C-10.8758 127.162 -10.7636 128.964 -9.54175 129.774L-2.84019 134.213C-1.61716 135.023 0.0860082 134.423 0.659107 132.982L6.92931 117.215C7.12459 116.724 7.59057 116.406 8.10556 116.287C9.25809 116.022 10.3302 115.355 11.057 114.257C11.8666 113.035 12.0285 111.624 11.6968 110.354C11.5744 109.885 11.6105 109.368 11.9353 109.008C13.1019 107.716 14.6419 106.902 16.3005 106.665C16.7333 106.603 17.1544 106.803 17.4262 107.146L35.3095 129.684C36.1584 130.753 37.943 132.568 40.898 133.386L81.4056 144.599C84.8259 145.545 87.4371 141.603 85.2319 138.823ZM39.4539 138.005C35.3113 136.857 32.814 134.321 31.6201 132.816L19.0707 117.001C18.5363 116.328 17.5193 116.312 16.9638 116.968L6.82369 128.95C3.85752 133.428 11.7203 143.858 24.3853 152.247C37.0503 160.636 49.721 163.808 52.6872 159.33L59.7652 145.318C60.1529 144.55 59.7414 143.62 58.9127 143.391L39.4539 138.005Z" fill="url(#paint1_linear_723_129)"/>
</g>
<g opacity="0.15">
<path d="M513.232 44.823L487.107 11.8989C485.684 10.1048 483.725 8.80731 481.519 8.19712L441.011 -3.01599C437.593 -3.9625 434.981 -0.0191536 437.186 2.75905L440.547 6.99495C441.13 7.72999 440.811 8.8246 439.981 9.26171C438.519 10.0311 437.2 11.0933 436.114 12.4397C435.826 12.7969 435.392 13.0012 434.936 13.0512C433.572 13.2007 432.259 13.9164 431.413 15.1941C430.686 16.2913 430.49 17.5387 430.695 18.7034C430.787 19.2239 430.676 19.777 430.3 20.1484L418.228 32.0722C417.124 33.1621 417.236 34.9642 418.458 35.7736L425.16 40.2127C426.383 41.0228 428.086 40.4232 428.659 38.9821L434.929 23.2148C435.125 22.7237 435.591 22.4057 436.106 22.2871C437.258 22.0218 438.33 21.3546 439.057 20.2574C439.867 19.0352 440.028 17.6235 439.697 16.3538C439.574 15.8849 439.611 15.3677 439.935 15.0079C441.102 13.7157 442.642 12.9019 444.301 12.6651C444.733 12.6033 445.154 12.8031 445.426 13.1456L463.31 35.6845C464.158 36.7534 465.943 38.568 468.898 39.3862L509.406 50.5994C512.826 51.5454 515.437 47.6033 513.232 44.823ZM467.454 44.0049C463.311 42.8574 460.814 40.321 459.62 38.8157L447.071 23.0012C446.536 22.3277 445.519 22.3117 444.964 22.968L434.824 34.9497C431.858 39.4277 439.72 49.8575 452.385 58.2469C465.05 66.6362 477.721 69.8077 480.687 65.3298L487.765 51.3179C488.153 50.5505 487.741 49.6202 486.913 49.3909L467.454 44.0049Z" fill="url(#paint2_linear_723_129)"/>
</g>
<g opacity="0.15">
<path d="M434.968 132.332L419.687 113.073C418.854 112.024 417.708 111.265 416.418 110.908L392.724 104.349C390.725 103.796 389.197 106.102 390.487 107.727L391.957 109.581C392.541 110.316 392.215 111.415 391.438 111.94C390.935 112.279 390.47 112.685 390.056 113.156C389.753 113.501 389.318 113.699 388.869 113.797C388.183 113.946 387.542 114.348 387.11 115.001C386.758 115.532 386.619 116.123 386.649 116.697C386.677 117.224 386.579 117.78 386.203 118.151L379.397 124.873C378.752 125.511 378.818 126.565 379.532 127.038L383.452 129.635C384.168 130.109 385.164 129.758 385.499 128.915L389.034 120.026C389.229 119.535 389.702 119.228 390.199 119.048C390.74 118.852 391.229 118.493 391.581 117.963C391.988 117.348 392.115 116.652 392.02 115.998C391.95 115.518 391.971 114.994 392.321 114.659C392.899 114.107 393.605 113.735 394.364 113.572C394.791 113.481 395.214 113.687 395.486 114.029L405.767 126.986C406.263 127.611 407.307 128.673 409.036 129.151L432.73 135.71C434.73 136.264 436.258 133.958 434.968 132.332ZM408.191 131.853C405.768 131.182 404.307 129.698 403.609 128.818L396.697 120.108C396.163 119.434 395.146 119.418 394.59 120.075L389.105 126.556C387.37 129.176 391.969 135.276 399.377 140.184C406.785 145.091 414.197 146.946 415.932 144.326L419.761 136.746C420.148 135.979 419.737 135.049 418.908 134.819L408.191 131.853Z" fill="url(#paint3_linear_723_129)"/>
</g>
<g opacity="0.15">
<path d="M186.968 44.3316L171.687 25.0735C170.854 24.0241 169.708 23.2652 168.418 22.9082L144.724 16.3494C142.725 15.7958 141.197 18.1024 142.487 19.7274L143.957 21.5808C144.541 22.3158 144.215 23.4148 143.438 23.9398C142.935 24.2794 142.47 24.6854 142.056 25.1564C141.753 25.5011 141.318 25.699 140.869 25.7966C140.183 25.9462 139.542 26.3482 139.11 27.0009C138.758 27.5318 138.619 28.1227 138.649 28.6967C138.677 29.2244 138.579 29.78 138.203 30.1514L131.397 36.8734C130.752 37.5108 130.818 38.5649 131.532 39.0383L135.452 41.6349C136.168 42.1088 137.164 41.758 137.499 40.9151L141.034 32.0264C141.229 31.5354 141.702 31.2284 142.199 31.0482C142.74 30.8522 143.229 30.4934 143.581 29.9626C143.988 29.3484 144.115 28.6524 144.02 27.9976C143.95 27.5179 143.971 26.994 144.321 26.6591C144.899 26.1066 145.605 25.7348 146.364 25.5723C146.791 25.4808 147.214 25.6866 147.486 26.0291L157.767 38.9862C158.263 39.6115 159.307 40.6729 161.036 41.1515L184.73 47.7103C186.73 48.2637 188.258 45.9578 186.968 44.3316ZM160.191 43.853C157.768 43.1818 156.307 41.6983 155.609 40.8178L148.697 32.1079C148.163 31.4344 147.146 31.4184 146.59 32.0747L141.105 38.5565C139.37 41.1757 143.969 47.2764 151.377 52.1835C158.785 57.0906 166.197 58.9457 167.932 56.3265L171.761 48.7465C172.148 47.979 171.737 47.0488 170.908 46.8194L160.191 43.853Z" fill="url(#paint4_linear_723_129)"/>
</g>
<g opacity="0.15">
<path d="M258.968 153.332L243.687 134.073C242.854 133.024 241.708 132.265 240.418 131.908L216.724 125.349C214.725 124.796 213.197 127.102 214.487 128.727L215.957 130.581C216.541 131.316 216.215 132.415 215.438 132.94C214.935 133.279 214.47 133.685 214.056 134.156C213.753 134.501 213.318 134.699 212.869 134.797C212.183 134.946 211.542 135.348 211.11 136.001C210.758 136.532 210.619 137.123 210.649 137.697C210.677 138.224 210.579 138.78 210.203 139.151L203.397 145.873C202.752 146.511 202.818 147.565 203.532 148.038L207.452 150.635C208.168 151.109 209.164 150.758 209.499 149.915L213.034 141.026C213.229 140.535 213.702 140.228 214.199 140.048C214.74 139.852 215.229 139.493 215.581 138.963C215.988 138.348 216.115 137.652 216.02 136.998C215.95 136.518 215.971 135.994 216.321 135.659C216.899 135.107 217.605 134.735 218.364 134.572C218.791 134.481 219.214 134.687 219.486 135.029L229.767 147.986C230.263 148.611 231.307 149.673 233.036 150.151L256.73 156.71C258.73 157.264 260.258 154.958 258.968 153.332ZM232.191 152.853C229.768 152.182 228.307 150.698 227.609 149.818L220.697 141.108C220.163 140.434 219.146 140.418 218.59 141.075L213.105 147.556C211.37 150.176 215.969 156.276 223.377 161.184C230.785 166.091 238.197 167.946 239.932 165.326L243.761 157.746C244.148 156.979 243.737 156.049 242.908 155.819L232.191 152.853Z" fill="url(#paint5_linear_723_129)"/>
</g>
<g opacity="0.15">
<path d="M42.9677 12.3316L27.6868 -6.9265C26.8541 -7.97592 25.7084 -8.73484 24.418 -9.09176L0.724133 -15.6506C-1.27525 -16.2042 -2.80311 -13.8976 -1.51343 -12.2726L-0.0427312 -10.4192C0.540523 -9.68415 0.215381 -8.5852 -0.562322 -8.06018C-1.06538 -7.72057 -1.53031 -7.31464 -1.94393 -6.84364C-2.24669 -6.49886 -2.68241 -6.30104 -3.13073 -6.20336C-3.81734 -6.05377 -4.4577 -5.65178 -4.89006 -4.99906C-5.24168 -4.46823 -5.38098 -3.87726 -5.35067 -3.30329C-5.32281 -2.77556 -5.42084 -2.21996 -5.79683 -1.8486L-12.6026 4.87336C-13.248 5.51083 -13.1823 6.56494 -12.4676 7.03835L-8.54772 9.63489C-7.83235 10.1088 -6.83612 9.75804 -6.5009 8.91511L-2.96614 0.0264454C-2.77086 -0.464614 -2.29752 -0.771606 -1.80073 -0.951802C-1.2604 -1.14779 -0.770579 -1.50657 -0.418954 -2.0374C-0.0121104 -2.65159 0.115103 -3.34759 0.0198632 -4.00245C-0.0498922 -4.48208 -0.0291877 -5.00602 0.321177 -5.34091C0.899141 -5.89336 1.60489 -6.26522 2.36368 -6.42766C2.79124 -6.51918 3.21441 -6.31342 3.48618 -5.9709L13.7669 6.98624C14.2634 7.61148 15.3073 8.67287 17.0357 9.15149L40.7296 15.7103C42.7302 16.2637 44.2576 13.9578 42.9677 12.3316ZM16.1911 11.853C13.768 11.1818 12.3072 9.69826 11.6089 8.81779L4.69734 0.107933C4.1629 -0.565562 3.14585 -0.581611 2.59043 0.0746877L-2.89509 6.55648C-4.63007 9.17572 -0.0309665 15.2764 7.3771 20.1835C14.7852 25.0906 22.1966 26.9457 23.9315 24.3265L27.7606 16.7465C28.1482 15.979 27.7367 15.0488 26.9081 14.8194L16.1911 11.853Z" fill="url(#paint6_linear_723_129)"/>
</g>
</g>
<defs>
<linearGradient id="paint0_linear_723_129" x1="153.485" y1="69.6847" x2="371.895" y2="69.6847" gradientUnits="userSpaceOnUse">
<stop stop-color="#480CA8"/>
<stop offset="1" stop-color="#4895EF"/>
</linearGradient>
<linearGradient id="paint1_linear_723_129" x1="-13.8337" y1="126.931" x2="73.2775" y2="171.263" gradientUnits="userSpaceOnUse">
<stop stop-color="#480CA8"/>
<stop offset="1" stop-color="#4895EF"/>
</linearGradient>
<linearGradient id="paint2_linear_723_129" x1="414.166" y1="32.9306" x2="501.278" y2="77.2631" gradientUnits="userSpaceOnUse">
<stop stop-color="#480CA8"/>
<stop offset="1" stop-color="#4895EF"/>
</linearGradient>
<linearGradient id="paint3_linear_723_129" x1="377.022" y1="125.375" x2="427.975" y2="151.307" gradientUnits="userSpaceOnUse">
<stop stop-color="#480CA8"/>
<stop offset="1" stop-color="#4895EF"/>
</linearGradient>
<linearGradient id="paint4_linear_723_129" x1="129.022" y1="37.3754" x2="179.975" y2="63.3065" gradientUnits="userSpaceOnUse">
<stop stop-color="#480CA8"/>
<stop offset="1" stop-color="#4895EF"/>
</linearGradient>
<linearGradient id="paint5_linear_723_129" x1="201.022" y1="146.375" x2="251.975" y2="172.307" gradientUnits="userSpaceOnUse">
<stop stop-color="#480CA8"/>
<stop offset="1" stop-color="#4895EF"/>
</linearGradient>
<linearGradient id="paint6_linear_723_129" x1="-14.9781" y1="5.37541" x2="35.9753" y2="31.3065" gradientUnits="userSpaceOnUse">
<stop stop-color="#480CA8"/>
<stop offset="1" stop-color="#4895EF"/>
</linearGradient>
<clipPath id="clip0_723_129">
<rect width="500" height="150" fill="white"/>
</clipPath>
</defs>
</svg>
