<svg width="500" height="150" viewBox="0 0 500 150" fill="none" xmlns="http://www.w3.org/2000/svg">
<g clip-path="url(#clip0_736_153)">
<rect width="500" height="150" rx="6" fill="white"/>
<g opacity="0.15">
<path fill-rule="evenodd" clip-rule="evenodd" d="M82.0704 145.714L57.1044 94.2424L-0.058973 87.2114L-0.0915097 87.1459L-11.2771 102.573L-3.61774 108.062L4.5279 96.8274L24.7093 138.917L71.4701 144.257L52.8602 169.921L60.5311 175.418L82.0704 145.714ZM19.7818 145.77L3.64641 113.259L-7.03891 127.996L8.92418 160.744L45.2238 165.445L56.0815 150.471L19.7818 145.77Z" fill="url(#paint0_linear_736_153)"/>
</g>
<g opacity="0.15">
<path fill-rule="evenodd" clip-rule="evenodd" d="M55.8214 22.523L35.7491 -6.887L0.000160627 -5.91832L-0.0112999 -5.93477L-5.45963 4.61897L-0.247192 7.29371L3.7239 -0.398528L19.9815 23.6543L49.1797 22.6083L40.1217 40.1534L45.3376 42.8297L55.8214 22.523ZM17.5665 28.352L4.6641 9.81192L-0.53622 19.885L12.2823 38.5876L34.9983 38.1189L40.2825 27.8833L17.5665 28.352Z" fill="url(#paint1_linear_736_153)"/>
</g>
<g opacity="0.15">
<path fill-rule="evenodd" clip-rule="evenodd" d="M192.821 41.523L172.749 12.113L137 13.0817L136.989 13.0652L131.54 23.619L136.753 26.2937L140.724 18.6015L156.982 42.6543L186.18 41.6083L177.122 59.1534L182.338 61.8297L192.821 41.523ZM154.567 47.352L141.664 28.8119L136.464 38.885L149.282 57.5876L171.998 57.1189L177.282 46.8833L154.567 47.352Z" fill="url(#paint2_linear_736_153)"/>
</g>
<g opacity="0.15">
<path fill-rule="evenodd" clip-rule="evenodd" d="M261.997 157.189L239.921 124.843L200.603 125.908L200.59 125.89L194.598 137.497L200.331 140.439L204.698 131.979L222.579 158.433L254.693 157.283L244.73 176.58L250.467 179.523L261.997 157.189ZM219.923 163.6L205.732 143.209L200.013 154.288L214.111 174.858L239.095 174.342L244.907 163.085L219.923 163.6Z" fill="url(#paint3_linear_736_153)"/>
</g>
<g opacity="0.15">
<path fill-rule="evenodd" clip-rule="evenodd" d="M430.89 127.643L417.238 107.64L392.923 108.298L392.915 108.287L389.21 115.465L392.755 117.285L395.456 112.053L406.514 128.412L426.373 127.701L420.212 139.634L423.76 141.455L430.89 127.643ZM404.871 131.608L396.095 118.997L392.558 125.849L401.277 138.569L416.727 138.251L420.321 131.289L404.871 131.608Z" fill="url(#paint4_linear_736_153)"/>
</g>
<g opacity="0.15">
<path fill-rule="evenodd" clip-rule="evenodd" d="M385.89 18.6429L372.238 -1.36048L347.923 -0.701628L347.915 -0.712813L344.21 6.46538L347.755 8.28462L350.456 3.0527L361.514 19.4124L381.373 18.701L375.212 30.6343L378.76 32.4547L385.89 18.6429ZM359.871 22.6076L351.095 9.9974L347.558 16.8487L356.277 29.5694L371.727 29.2506L375.321 22.2888L359.871 22.6076Z" fill="url(#paint5_linear_736_153)"/>
</g>
<g opacity="0.15">
<path fill-rule="evenodd" clip-rule="evenodd" d="M518.817 36.1742L490.698 -5.02635L440.617 -3.66933L440.601 -3.69237L432.969 11.0924L440.271 14.8394L445.834 4.06336L468.609 37.759L509.513 36.2937L496.824 60.8726L504.131 64.6219L518.817 36.1742ZM465.226 44.3401L447.151 18.3672L439.866 32.4786L457.824 58.6791L489.646 58.0225L497.049 43.6835L465.226 44.3401Z" fill="url(#paint6_linear_736_153)"/>
</g>
<path d="M171.297 93.7789C171.49 93.4438 171.775 93.1657 172.153 92.9446C172.538 92.7165 172.984 92.6024 173.49 92.6024C174.01 92.6024 174.481 92.7272 174.902 92.9767C175.329 93.2263 175.665 93.5793 175.907 94.0356C176.15 94.4848 176.271 95.0089 176.271 95.6079C176.271 96.1997 176.15 96.7274 175.907 97.1909C175.665 97.6544 175.329 98.0145 174.902 98.2712C174.481 98.5279 174.01 98.6562 173.49 98.6562C172.991 98.6562 172.549 98.5457 172.164 98.3246C171.786 98.0965 171.497 97.8148 171.297 97.4797V101.341H170.324V92.6986H171.297V93.7789ZM175.276 95.6079C175.276 95.1658 175.187 94.7808 175.009 94.4528C174.83 94.1248 174.588 93.8752 174.281 93.7041C173.982 93.5329 173.65 93.4474 173.287 93.4474C172.93 93.4474 172.598 93.5365 172.292 93.7147C171.992 93.8859 171.75 94.139 171.565 94.4741C171.386 94.8022 171.297 95.1836 171.297 95.6186C171.297 96.0607 171.386 96.4493 171.565 96.7844C171.75 97.1124 171.992 97.3656 172.292 97.5438C172.598 97.715 172.93 97.8005 173.287 97.8005C173.65 97.8005 173.982 97.715 174.281 97.5438C174.588 97.3656 174.83 97.1124 175.009 96.7844C175.187 96.4493 175.276 96.0571 175.276 95.6079ZM178.525 90.6451V98.5599H177.552V90.6451H178.525ZM179.82 95.6079C179.82 95.0089 179.942 94.4848 180.184 94.0356C180.426 93.5793 180.758 93.2263 181.179 92.9767C181.607 92.7272 182.081 92.6024 182.601 92.6024C183.115 92.6024 183.56 92.7129 183.938 92.934C184.316 93.155 184.598 93.4331 184.783 93.7682V92.6986H185.767V98.5599H184.783V97.469C184.591 97.8112 184.302 98.0965 183.917 98.3246C183.539 98.5457 183.097 98.6562 182.591 98.6562C182.07 98.6562 181.599 98.5279 181.179 98.2712C180.758 98.0145 180.426 97.6544 180.184 97.1909C179.942 96.7274 179.82 96.1997 179.82 95.6079ZM184.783 95.6186C184.783 95.1765 184.694 94.7915 184.516 94.4635C184.338 94.1354 184.095 93.8859 183.789 93.7147C183.489 93.5365 183.157 93.4474 182.794 93.4474C182.43 93.4474 182.099 93.5329 181.799 93.7041C181.5 93.8752 181.261 94.1248 181.082 94.4528C180.904 94.7808 180.815 95.1658 180.815 95.6079C180.815 96.0571 180.904 96.4493 181.082 96.7844C181.261 97.1124 181.5 97.3656 181.799 97.5438C182.099 97.715 182.43 97.8005 182.794 97.8005C183.157 97.8005 183.489 97.715 183.789 97.5438C184.095 97.3656 184.338 97.1124 184.516 96.7844C184.694 96.4493 184.783 96.0607 184.783 95.6186ZM188.599 93.5008V96.9556C188.599 97.2408 188.66 97.444 188.781 97.5652C188.902 97.6793 189.113 97.7364 189.412 97.7364H190.129V98.5599H189.252C188.71 98.5599 188.303 98.4352 188.032 98.1856C187.761 97.936 187.626 97.526 187.626 96.9556V93.5008H186.867V92.6986H187.626V91.2226H188.599V92.6986H190.129V93.5008H188.599ZM190.944 95.6079C190.944 95.0089 191.066 94.4848 191.308 94.0356C191.551 93.5793 191.882 93.2263 192.303 92.9767C192.731 92.7272 193.205 92.6024 193.725 92.6024C194.239 92.6024 194.684 92.7129 195.062 92.934C195.44 93.155 195.722 93.4331 195.907 93.7682V92.6986H196.891V98.5599H195.907V97.469C195.715 97.8112 195.426 98.0965 195.041 98.3246C194.663 98.5457 194.221 98.6562 193.715 98.6562C193.194 98.6562 192.724 98.5279 192.303 98.2712C191.882 98.0145 191.551 97.6544 191.308 97.1909C191.066 96.7274 190.944 96.1997 190.944 95.6079ZM195.907 95.6186C195.907 95.1765 195.818 94.7915 195.64 94.4635C195.462 94.1354 195.219 93.8859 194.913 93.7147C194.613 93.5365 194.282 93.4474 193.918 93.4474C193.554 93.4474 193.223 93.5329 192.923 93.7041C192.624 93.8752 192.385 94.1248 192.207 94.4528C192.028 94.7808 191.939 95.1658 191.939 95.6079C191.939 96.0571 192.028 96.4493 192.207 96.7844C192.385 97.1124 192.624 97.3656 192.923 97.5438C193.223 97.715 193.554 97.8005 193.918 97.8005C194.282 97.8005 194.613 97.715 194.913 97.5438C195.219 97.3656 195.462 97.1124 195.64 96.7844C195.818 96.4493 195.907 96.0607 195.907 95.6186ZM200.921 93.5008H199.691V98.5599H198.718V93.5008H197.959V92.6986H198.718V92.2815C198.718 91.6255 198.886 91.1478 199.221 90.8483C199.563 90.5417 200.108 90.3884 200.857 90.3884V91.2012C200.429 91.2012 200.126 91.2868 199.948 91.4579C199.777 91.6219 199.691 91.8965 199.691 92.2815V92.6986H200.921V93.5008ZM204.612 98.6562C204.063 98.6562 203.564 98.5314 203.115 98.2819C202.673 98.0323 202.324 97.6793 202.067 97.223C201.817 96.7595 201.692 96.2247 201.692 95.6186C201.692 95.0196 201.821 94.492 202.078 94.0356C202.341 93.5721 202.698 93.2192 203.147 92.9767C203.596 92.7272 204.099 92.6024 204.655 92.6024C205.211 92.6024 205.714 92.7272 206.163 92.9767C206.613 93.2192 206.965 93.5686 207.222 94.0249C207.486 94.4813 207.618 95.0125 207.618 95.6186C207.618 96.2247 207.482 96.7595 207.211 97.223C206.948 97.6793 206.588 98.0323 206.131 98.2819C205.675 98.5314 205.169 98.6562 204.612 98.6562ZM204.612 97.8005C204.962 97.8005 205.29 97.7185 205.596 97.5545C205.903 97.3905 206.149 97.1445 206.334 96.8165C206.527 96.4885 206.623 96.0892 206.623 95.6186C206.623 95.148 206.531 94.7487 206.345 94.4207C206.16 94.0927 205.917 93.8502 205.618 93.6934C205.318 93.5294 204.994 93.4474 204.645 93.4474C204.288 93.4474 203.96 93.5294 203.66 93.6934C203.368 93.8502 203.133 94.0927 202.955 94.4207C202.776 94.7487 202.687 95.148 202.687 95.6186C202.687 96.0963 202.773 96.4992 202.944 96.8272C203.122 97.1552 203.357 97.4012 203.65 97.5652C203.942 97.7221 204.263 97.8005 204.612 97.8005ZM209.871 93.6506C210.042 93.3154 210.285 93.0552 210.598 92.8698C210.919 92.6844 211.308 92.5917 211.764 92.5917V93.5971H211.507C210.416 93.5971 209.871 94.1889 209.871 95.3726V98.5599H208.898V92.6986H209.871V93.6506ZM219.936 92.5917C220.393 92.5917 220.799 92.688 221.156 92.8805C221.512 93.0659 221.794 93.3475 222.001 93.7254C222.207 94.1034 222.311 94.5633 222.311 95.1052V98.5599H221.348V95.2442C221.348 94.6595 221.202 94.2139 220.91 93.9073C220.624 93.5935 220.236 93.4367 219.744 93.4367C219.237 93.4367 218.835 93.6007 218.535 93.9287C218.236 94.2495 218.086 94.7166 218.086 95.3298V98.5599H217.123V95.2442C217.123 94.6595 216.977 94.2139 216.685 93.9073C216.399 93.5935 216.011 93.4367 215.519 93.4367C215.013 93.4367 214.61 93.6007 214.31 93.9287C214.011 94.2495 213.861 94.7166 213.861 95.3298V98.5599H212.888V92.6986H213.861V93.5436C214.054 93.237 214.31 93.0017 214.631 92.8377C214.959 92.6737 215.319 92.5917 215.711 92.5917C216.203 92.5917 216.638 92.7022 217.016 92.9233C217.394 93.1443 217.676 93.4687 217.861 93.8966C218.025 93.483 218.296 93.1621 218.674 92.934C219.052 92.7058 219.473 92.5917 219.936 92.5917ZM223.544 95.6079C223.544 95.0089 223.665 94.4848 223.907 94.0356C224.15 93.5793 224.481 93.2263 224.902 92.9767C225.33 92.7272 225.804 92.6024 226.325 92.6024C226.838 92.6024 227.284 92.7129 227.662 92.934C228.039 93.155 228.321 93.4331 228.506 93.7682V92.6986H229.491V98.5599H228.506V97.469C228.314 97.8112 228.025 98.0965 227.64 98.3246C227.262 98.5457 226.82 98.6562 226.314 98.6562C225.793 98.6562 225.323 98.5279 224.902 98.2712C224.481 98.0145 224.15 97.6544 223.907 97.1909C223.665 96.7274 223.544 96.1997 223.544 95.6079ZM228.506 95.6186C228.506 95.1765 228.417 94.7915 228.239 94.4635C228.061 94.1354 227.818 93.8859 227.512 93.7147C227.212 93.5365 226.881 93.4474 226.517 93.4474C226.153 93.4474 225.822 93.5329 225.522 93.7041C225.223 93.8752 224.984 94.1248 224.806 94.4528C224.627 94.7808 224.538 95.1658 224.538 95.6079C224.538 96.0571 224.627 96.4493 224.806 96.7844C224.984 97.1124 225.223 97.3656 225.522 97.5438C225.822 97.715 226.153 97.8005 226.517 97.8005C226.881 97.8005 227.212 97.715 227.512 97.5438C227.818 97.3656 228.061 97.1124 228.239 96.7844C228.417 96.4493 228.506 96.0607 228.506 95.6186ZM233.623 95.6079C233.623 95.0089 233.744 94.4848 233.987 94.0356C234.229 93.5793 234.561 93.2263 234.982 92.9767C235.409 92.7272 235.887 92.6024 236.415 92.6024C236.871 92.6024 237.295 92.7093 237.688 92.9233C238.08 93.13 238.379 93.4046 238.586 93.7468V90.6451H239.57V98.5599H238.586V97.4583C238.394 97.8077 238.108 98.0965 237.73 98.3246C237.352 98.5457 236.91 98.6562 236.404 98.6562C235.884 98.6562 235.409 98.5279 234.982 98.2712C234.561 98.0145 234.229 97.6544 233.987 97.1909C233.744 96.7274 233.623 96.1997 233.623 95.6079ZM238.586 95.6186C238.586 95.1765 238.497 94.7915 238.319 94.4635C238.14 94.1354 237.898 93.8859 237.591 93.7147C237.292 93.5365 236.96 93.4474 236.597 93.4474C236.233 93.4474 235.901 93.5329 235.602 93.7041C235.302 93.8752 235.064 94.1248 234.885 94.4528C234.707 94.7808 234.618 95.1658 234.618 95.6079C234.618 96.0571 234.707 96.4493 234.885 96.7844C235.064 97.1124 235.302 97.3656 235.602 97.5438C235.901 97.715 236.233 97.8005 236.597 97.8005C236.96 97.8005 237.292 97.715 237.591 97.5438C237.898 97.3656 238.14 97.1124 238.319 96.7844C238.497 96.4493 238.586 96.0607 238.586 95.6186ZM246.563 95.4047C246.563 95.5901 246.552 95.7862 246.531 95.993H241.846C241.882 96.5705 242.078 97.0233 242.434 97.3513C242.798 97.6722 243.236 97.8326 243.75 97.8326C244.17 97.8326 244.52 97.7364 244.798 97.5438C245.083 97.3442 245.283 97.0804 245.397 96.7524H246.445C246.288 97.3157 245.974 97.7756 245.504 98.1321C245.033 98.4815 244.449 98.6562 243.75 98.6562C243.194 98.6562 242.694 98.5314 242.252 98.2819C241.817 98.0323 241.475 97.6793 241.226 97.223C240.976 96.7595 240.851 96.2247 240.851 95.6186C240.851 95.0125 240.972 94.4813 241.215 94.0249C241.457 93.5686 241.796 93.2192 242.231 92.9767C242.673 92.7272 243.179 92.6024 243.75 92.6024C244.306 92.6024 244.798 92.7236 245.226 92.966C245.654 93.2085 245.982 93.5436 246.21 93.9714C246.445 94.3921 246.563 94.8699 246.563 95.4047ZM245.557 95.2015C245.557 94.8307 245.475 94.5134 245.311 94.2495C245.147 93.9786 244.923 93.7754 244.638 93.6399C244.359 93.4973 244.049 93.426 243.707 93.426C243.215 93.426 242.794 93.5828 242.445 93.8966C242.103 94.2103 241.907 94.6453 241.857 95.2015H245.557ZM253.116 92.6024C253.623 92.6024 254.065 92.7129 254.443 92.934C254.828 93.155 255.113 93.4331 255.298 93.7682V92.6986H256.282V98.6883C256.282 99.2231 256.168 99.6973 255.94 100.111C255.712 100.532 255.384 100.86 254.956 101.095C254.535 101.33 254.043 101.448 253.48 101.448C252.71 101.448 252.068 101.266 251.555 100.902C251.041 100.539 250.738 100.043 250.646 99.4156H251.608C251.715 99.7721 251.936 100.057 252.271 100.271C252.606 100.492 253.009 100.603 253.48 100.603C254.015 100.603 254.45 100.435 254.785 100.1C255.127 99.765 255.298 99.2944 255.298 98.6883V97.4583C255.106 97.8005 254.82 98.0858 254.443 98.3139C254.065 98.5421 253.623 98.6562 253.116 98.6562C252.596 98.6562 252.122 98.5279 251.694 98.2712C251.273 98.0145 250.941 97.6544 250.699 97.1909C250.457 96.7274 250.335 96.1997 250.335 95.6079C250.335 95.0089 250.457 94.4848 250.699 94.0356C250.941 93.5793 251.273 93.2263 251.694 92.9767C252.122 92.7272 252.596 92.6024 253.116 92.6024ZM255.298 95.6186C255.298 95.1765 255.209 94.7915 255.031 94.4635C254.853 94.1354 254.61 93.8859 254.304 93.7147C254.004 93.5365 253.672 93.4474 253.309 93.4474C252.945 93.4474 252.614 93.5329 252.314 93.7041C252.015 93.8752 251.776 94.1248 251.597 94.4528C251.419 94.7808 251.33 95.1658 251.33 95.6079C251.33 96.0571 251.419 96.4493 251.597 96.7844C251.776 97.1124 252.015 97.3656 252.314 97.5438C252.614 97.715 252.945 97.8005 253.309 97.8005C253.672 97.8005 254.004 97.715 254.304 97.5438C254.61 97.3656 254.853 97.1124 255.031 96.7844C255.209 96.4493 255.298 96.0607 255.298 95.6186ZM263.275 95.4047C263.275 95.5901 263.264 95.7862 263.243 95.993H258.558C258.594 96.5705 258.79 97.0233 259.146 97.3513C259.51 97.6722 259.949 97.8326 260.462 97.8326C260.883 97.8326 261.232 97.7364 261.51 97.5438C261.795 97.3442 261.995 97.0804 262.109 96.7524H263.157C263 97.3157 262.687 97.7756 262.216 98.1321C261.745 98.4815 261.161 98.6562 260.462 98.6562C259.906 98.6562 259.407 98.5314 258.965 98.2819C258.53 98.0323 258.187 97.6793 257.938 97.223C257.688 96.7595 257.563 96.2247 257.563 95.6186C257.563 95.0125 257.685 94.4813 257.927 94.0249C258.169 93.5686 258.508 93.2192 258.943 92.9767C259.385 92.7272 259.892 92.6024 260.462 92.6024C261.018 92.6024 261.51 92.7236 261.938 92.966C262.366 93.2085 262.694 93.5436 262.922 93.9714C263.157 94.3921 263.275 94.8699 263.275 95.4047ZM262.27 95.2015C262.27 94.8307 262.188 94.5134 262.024 94.2495C261.86 93.9786 261.635 93.7754 261.35 93.6399C261.072 93.4973 260.761 93.426 260.419 93.426C259.927 93.426 259.506 93.5828 259.157 93.8966C258.815 94.2103 258.619 94.6453 258.569 95.2015H262.27ZM266.635 98.6562C266.185 98.6562 265.783 98.5813 265.426 98.4316C265.07 98.2747 264.788 98.0608 264.581 97.7898C264.374 97.5118 264.26 97.1944 264.239 96.8379H265.244C265.273 97.1303 265.408 97.3691 265.651 97.5545C265.9 97.7399 266.225 97.8326 266.624 97.8326C266.995 97.8326 267.287 97.7506 267.501 97.5866C267.715 97.4226 267.822 97.2158 267.822 96.9663C267.822 96.7096 267.708 96.5206 267.48 96.3994C267.251 96.271 266.899 96.1463 266.421 96.025C265.986 95.911 265.629 95.7969 265.351 95.6828C265.08 95.5616 264.845 95.3869 264.645 95.1587C264.453 94.9234 264.356 94.6168 264.356 94.2388C264.356 93.9394 264.446 93.6648 264.624 93.4153C264.802 93.1657 265.055 92.9696 265.383 92.827C265.711 92.6773 266.086 92.6024 266.506 92.6024C267.155 92.6024 267.679 92.7664 268.079 93.0944C268.478 93.4224 268.692 93.8716 268.72 94.4421H267.747C267.726 94.1354 267.601 93.8894 267.373 93.7041C267.152 93.5187 266.852 93.426 266.474 93.426C266.125 93.426 265.847 93.5008 265.64 93.6506C265.433 93.8003 265.33 93.9964 265.33 94.2388C265.33 94.4314 265.39 94.5918 265.512 94.7202C265.64 94.8414 265.797 94.9412 265.982 95.0196C266.175 95.0909 266.439 95.1729 266.774 95.2656C267.194 95.3797 267.537 95.4938 267.801 95.6079C268.064 95.7149 268.289 95.8789 268.474 96.0999C268.667 96.321 268.767 96.6097 268.774 96.9663C268.774 97.2871 268.685 97.5759 268.506 97.8326C268.328 98.0893 268.075 98.2925 267.747 98.4423C267.426 98.5849 267.055 98.6562 266.635 98.6562ZM271.335 93.5008V96.9556C271.335 97.2408 271.396 97.444 271.517 97.5652C271.638 97.6793 271.848 97.7364 272.148 97.7364H272.865V98.5599H271.988C271.446 98.5599 271.039 98.4352 270.768 98.1856C270.497 97.936 270.362 97.526 270.362 96.9556V93.5008H269.602V92.6986H270.362V91.2226H271.335V92.6986H272.865V93.5008H271.335ZM273.68 95.6079C273.68 95.0089 273.801 94.4848 274.044 94.0356C274.286 93.5793 274.618 93.2263 275.039 92.9767C275.466 92.7272 275.941 92.6024 276.461 92.6024C276.975 92.6024 277.42 92.7129 277.798 92.934C278.176 93.155 278.458 93.4331 278.643 93.7682V92.6986H279.627V98.5599H278.643V97.469C278.451 97.8112 278.162 98.0965 277.777 98.3246C277.399 98.5457 276.957 98.6562 276.45 98.6562C275.93 98.6562 275.459 98.5279 275.039 98.2712C274.618 98.0145 274.286 97.6544 274.044 97.1909C273.801 96.7274 273.68 96.1997 273.68 95.6079ZM278.643 95.6186C278.643 95.1765 278.554 94.7915 278.376 94.4635C278.197 94.1354 277.955 93.8859 277.648 93.7147C277.349 93.5365 277.017 93.4474 276.654 93.4474C276.29 93.4474 275.958 93.5329 275.659 93.7041C275.359 93.8752 275.121 94.1248 274.942 94.4528C274.764 94.7808 274.675 95.1658 274.675 95.6079C274.675 96.0571 274.764 96.4493 274.942 96.7844C275.121 97.1124 275.359 97.3656 275.659 97.5438C275.958 97.715 276.29 97.8005 276.654 97.8005C277.017 97.8005 277.349 97.715 277.648 97.5438C277.955 97.3656 278.197 97.1124 278.376 96.7844C278.554 96.4493 278.643 96.0607 278.643 95.6186ZM275.274 92.0676C275.324 91.7039 275.441 91.4258 275.627 91.2333C275.819 91.0408 276.058 90.9445 276.343 90.9445C276.479 90.9445 276.593 90.9695 276.686 91.0194C276.786 91.0622 276.903 91.1264 277.039 91.2119C277.139 91.2832 277.228 91.3403 277.306 91.3831C277.385 91.4187 277.47 91.4365 277.563 91.4365C277.684 91.4365 277.787 91.3973 277.873 91.3189C277.959 91.2405 278.012 91.1264 278.033 90.9766H278.59C278.547 91.3331 278.429 91.6077 278.237 91.8002C278.044 91.9927 277.805 92.089 277.52 92.089C277.385 92.089 277.263 92.0676 277.156 92.0248C277.057 91.9749 276.942 91.9036 276.814 91.8109C276.7 91.7396 276.607 91.6861 276.536 91.6505C276.472 91.6148 276.393 91.597 276.301 91.597C276.179 91.597 276.076 91.6362 275.99 91.7146C275.912 91.7931 275.862 91.9107 275.841 92.0676H275.274ZM283.828 98.6562C283.279 98.6562 282.78 98.5314 282.331 98.2819C281.889 98.0323 281.539 97.6793 281.283 97.223C281.033 96.7595 280.908 96.2247 280.908 95.6186C280.908 95.0196 281.037 94.492 281.293 94.0356C281.557 93.5721 281.914 93.2192 282.363 92.9767C282.812 92.7272 283.315 92.6024 283.871 92.6024C284.427 92.6024 284.93 92.7272 285.379 92.9767C285.828 93.2192 286.181 93.5686 286.438 94.0249C286.702 94.4813 286.834 95.0125 286.834 95.6186C286.834 96.2247 286.698 96.7595 286.427 97.223C286.163 97.6793 285.803 98.0323 285.347 98.2819C284.891 98.5314 284.384 98.6562 283.828 98.6562ZM283.828 97.8005C284.178 97.8005 284.506 97.7185 284.812 97.5545C285.119 97.3905 285.365 97.1445 285.55 96.8165C285.743 96.4885 285.839 96.0892 285.839 95.6186C285.839 95.148 285.746 94.7487 285.561 94.4207C285.376 94.0927 285.133 93.8502 284.834 93.6934C284.534 93.5294 284.21 93.4474 283.86 93.4474C283.504 93.4474 283.176 93.5294 282.876 93.6934C282.584 93.8502 282.349 94.0927 282.17 94.4207C281.992 94.7487 281.903 95.148 281.903 95.6186C281.903 96.0963 281.988 96.4992 282.16 96.8272C282.338 97.1552 282.573 97.4012 282.866 97.5652C283.158 97.7221 283.479 97.8005 283.828 97.8005ZM296.313 95.4047C296.313 95.5901 296.302 95.7862 296.281 95.993H291.596C291.632 96.5705 291.828 97.0233 292.184 97.3513C292.548 97.6722 292.986 97.8326 293.5 97.8326C293.921 97.8326 294.27 97.7364 294.548 97.5438C294.833 97.3442 295.033 97.0804 295.147 96.7524H296.195C296.038 97.3157 295.725 97.7756 295.254 98.1321C294.783 98.4815 294.199 98.6562 293.5 98.6562C292.944 98.6562 292.445 98.5314 292.002 98.2819C291.567 98.0323 291.225 97.6793 290.976 97.223C290.726 96.7595 290.601 96.2247 290.601 95.6186C290.601 95.0125 290.723 94.4813 290.965 94.0249C291.207 93.5686 291.546 93.2192 291.981 92.9767C292.423 92.7272 292.929 92.6024 293.5 92.6024C294.056 92.6024 294.548 92.7236 294.976 92.966C295.404 93.2085 295.732 93.5436 295.96 93.9714C296.195 94.3921 296.313 94.8699 296.313 95.4047ZM295.307 95.2015C295.307 94.8307 295.225 94.5134 295.061 94.2495C294.897 93.9786 294.673 93.7754 294.388 93.6399C294.11 93.4973 293.799 93.426 293.457 93.426C292.965 93.426 292.544 93.5828 292.195 93.8966C291.853 94.2103 291.657 94.6453 291.607 95.2015H295.307ZM299.673 98.6562C299.223 98.6562 298.82 98.5813 298.464 98.4316C298.107 98.2747 297.826 98.0608 297.619 97.7898C297.412 97.5118 297.298 97.1944 297.277 96.8379H298.282C298.311 97.1303 298.446 97.3691 298.689 97.5545C298.938 97.7399 299.263 97.8326 299.662 97.8326C300.033 97.8326 300.325 97.7506 300.539 97.5866C300.753 97.4226 300.86 97.2158 300.86 96.9663C300.86 96.7096 300.746 96.5206 300.518 96.3994C300.289 96.271 299.936 96.1463 299.459 96.025C299.024 95.911 298.667 95.7969 298.389 95.6828C298.118 95.5616 297.883 95.3869 297.683 95.1587C297.491 94.9234 297.394 94.6168 297.394 94.2388C297.394 93.9394 297.484 93.6648 297.662 93.4153C297.84 93.1657 298.093 92.9696 298.421 92.827C298.749 92.6773 299.124 92.6024 299.544 92.6024C300.193 92.6024 300.717 92.7664 301.117 93.0944C301.516 93.4224 301.73 93.8716 301.758 94.4421H300.785C300.764 94.1354 300.639 93.8894 300.411 93.7041C300.19 93.5187 299.89 93.426 299.512 93.426C299.163 93.426 298.885 93.5008 298.678 93.6506C298.471 93.8003 298.368 93.9964 298.368 94.2388C298.368 94.4314 298.428 94.5918 298.55 94.7202C298.678 94.8414 298.835 94.9412 299.02 95.0196C299.213 95.0909 299.476 95.1729 299.812 95.2656C300.232 95.3797 300.575 95.4938 300.838 95.6079C301.102 95.7149 301.327 95.8789 301.512 96.0999C301.705 96.321 301.805 96.6097 301.812 96.9663C301.812 97.2871 301.723 97.5759 301.544 97.8326C301.366 98.0893 301.113 98.2925 300.785 98.4423C300.464 98.5849 300.093 98.6562 299.673 98.6562ZM302.822 95.6186C302.822 95.0125 302.943 94.4848 303.186 94.0356C303.428 93.5793 303.763 93.2263 304.191 92.9767C304.626 92.7272 305.122 92.6024 305.678 92.6024C306.398 92.6024 306.99 92.7771 307.453 93.1265C307.924 93.4759 308.234 93.9608 308.384 94.5811H307.336C307.236 94.2246 307.04 93.9429 306.747 93.7361C306.462 93.5294 306.106 93.426 305.678 93.426C305.122 93.426 304.672 93.6185 304.33 94.0035C303.988 94.3815 303.817 94.9198 303.817 95.6186C303.817 96.3245 303.988 96.87 304.33 97.2551C304.672 97.6401 305.122 97.8326 305.678 97.8326C306.106 97.8326 306.462 97.7328 306.747 97.5331C307.033 97.3335 307.229 97.0483 307.336 96.6775H308.384C308.227 97.2764 307.913 97.7578 307.443 98.1214C306.972 98.4779 306.384 98.6562 305.678 98.6562C305.122 98.6562 304.626 98.5314 304.191 98.2819C303.763 98.0323 303.428 97.6793 303.186 97.223C302.943 96.7666 302.822 96.2318 302.822 95.6186ZM312.239 98.6562C311.69 98.6562 311.191 98.5314 310.741 98.2819C310.299 98.0323 309.95 97.6793 309.693 97.223C309.444 96.7595 309.319 96.2247 309.319 95.6186C309.319 95.0196 309.447 94.492 309.704 94.0356C309.968 93.5721 310.324 93.2192 310.774 92.9767C311.223 92.7272 311.725 92.6024 312.282 92.6024C312.838 92.6024 313.341 92.7272 313.79 92.9767C314.239 93.2192 314.592 93.5686 314.849 94.0249C315.112 94.4813 315.244 95.0125 315.244 95.6186C315.244 96.2247 315.109 96.7595 314.838 97.223C314.574 97.6793 314.214 98.0323 313.758 98.2819C313.301 98.5314 312.795 98.6562 312.239 98.6562ZM312.239 97.8005C312.588 97.8005 312.916 97.7185 313.223 97.5545C313.53 97.3905 313.776 97.1445 313.961 96.8165C314.153 96.4885 314.25 96.0892 314.25 95.6186C314.25 95.148 314.157 94.7487 313.972 94.4207C313.786 94.0927 313.544 93.8502 313.244 93.6934C312.945 93.5294 312.62 93.4474 312.271 93.4474C311.914 93.4474 311.586 93.5294 311.287 93.6934C310.995 93.8502 310.759 94.0927 310.581 94.4207C310.403 94.7487 310.314 95.148 310.314 95.6186C310.314 96.0963 310.399 96.4992 310.57 96.8272C310.749 97.1552 310.984 97.4012 311.276 97.5652C311.569 97.7221 311.889 97.8005 312.239 97.8005ZM317.497 90.6451V98.5599H316.524V90.6451H317.497ZM318.793 95.6079C318.793 95.0089 318.914 94.4848 319.156 94.0356C319.399 93.5793 319.73 93.2263 320.151 92.9767C320.579 92.7272 321.053 92.6024 321.574 92.6024C322.087 92.6024 322.533 92.7129 322.911 92.934C323.288 93.155 323.57 93.4331 323.756 93.7682V92.6986H324.74V98.5599H323.756V97.469C323.563 97.8112 323.274 98.0965 322.889 98.3246C322.511 98.5457 322.069 98.6562 321.563 98.6562C321.042 98.6562 320.572 98.5279 320.151 98.2712C319.73 98.0145 319.399 97.6544 319.156 97.1909C318.914 96.7274 318.793 96.1997 318.793 95.6079ZM323.756 95.6186C323.756 95.1765 323.666 94.7915 323.488 94.4635C323.31 94.1354 323.067 93.8859 322.761 93.7147C322.461 93.5365 322.13 93.4474 321.766 93.4474C321.402 93.4474 321.071 93.5329 320.771 93.7041C320.472 93.8752 320.233 94.1248 320.055 94.4528C319.877 94.7808 319.787 95.1658 319.787 95.6079C319.787 96.0571 319.877 96.4493 320.055 96.7844C320.233 97.1124 320.472 97.3656 320.771 97.5438C321.071 97.715 321.402 97.8005 321.766 97.8005C322.13 97.8005 322.461 97.715 322.761 97.5438C323.067 97.3656 323.31 97.1124 323.488 96.7844C323.666 96.4493 323.756 96.0607 323.756 95.6186ZM327.358 93.6506C327.529 93.3154 327.771 93.0552 328.085 92.8698C328.406 92.6844 328.794 92.5917 329.251 92.5917V93.5971H328.994C327.903 93.5971 327.358 94.1889 327.358 95.3726V98.5599H326.384V92.6986H327.358V93.6506Z" fill="#22272E"/>
<g filter="url(#filter0_d_736_153)">
<path d="M156.27 62.0329V68.0703H166.007V73.6826H156.27V80.2301H167.282V86.0549H149V56.2081H167.282V62.0329H156.27Z" fill="#22272E"/>
<path d="M183.184 56.2081C186.33 56.2081 189.08 56.8317 191.432 58.0789C193.785 59.326 195.599 61.0834 196.875 63.351C198.178 65.5902 198.83 68.1837 198.83 71.1315C198.83 74.051 198.178 76.6446 196.875 78.9121C195.599 81.1797 193.771 82.937 191.39 84.1842C189.037 85.4314 186.302 86.0549 183.184 86.0549H172.002V56.2081H183.184ZM182.717 79.7625C185.466 79.7625 187.606 79.0113 189.137 77.5091C190.667 76.0068 191.432 73.881 191.432 71.1315C191.432 68.3821 190.667 66.2421 189.137 64.7115C187.606 63.1809 185.466 62.4156 182.717 62.4156H179.273V79.7625H182.717Z" fill="#22272E"/>
<path d="M210.036 56.2081V74.0652C210.036 75.8509 210.476 77.2256 211.354 78.1893C212.233 79.153 213.523 79.6349 215.223 79.6349C216.924 79.6349 218.228 79.153 219.135 78.1893C220.042 77.2256 220.495 75.8509 220.495 74.0652V56.2081H227.766V74.0227C227.766 76.6871 227.199 78.9405 226.065 80.7829C224.931 82.6253 223.401 84.0141 221.473 84.9495C219.574 85.8849 217.448 86.3526 215.096 86.3526C212.743 86.3526 210.631 85.8991 208.761 84.992C206.918 84.0567 205.459 82.6678 204.381 80.8254C203.304 78.9546 202.766 76.6871 202.766 74.0227V56.2081H210.036Z" fill="#22272E"/>
<path d="M231.638 71.089C231.638 68.1412 232.276 65.5193 233.551 63.2234C234.827 60.8992 236.598 59.0993 238.866 57.8238C241.162 56.5199 243.755 55.868 246.647 55.868C250.19 55.868 253.222 56.8034 255.745 58.6741C258.268 60.5448 259.954 63.0959 260.805 66.3271H252.811C252.216 65.08 251.366 64.1304 250.26 63.4785C249.183 62.8266 247.95 62.5006 246.562 62.5006C244.322 62.5006 242.508 63.2801 241.119 64.839C239.73 66.398 239.036 68.4813 239.036 71.089C239.036 73.6967 239.73 75.78 241.119 77.339C242.508 78.8979 244.322 79.6774 246.562 79.6774C247.95 79.6774 249.183 79.3515 250.26 78.6995C251.366 78.0476 252.216 77.0981 252.811 75.8509H260.805C259.954 79.0822 258.268 81.6332 255.745 83.5039C253.222 85.3463 250.19 86.2675 246.647 86.2675C243.755 86.2675 241.162 85.6298 238.866 84.3543C236.598 83.0504 234.827 81.2505 233.551 78.9546C232.276 76.6587 231.638 74.0369 231.638 71.089Z" fill="#22272E"/>
<path d="M283.837 80.7829H272.697L270.912 86.0549H263.301L274.1 56.2081H282.519L293.318 86.0549H285.623L283.837 80.7829ZM281.966 75.1706L278.267 64.2438L274.611 75.1706H281.966Z" fill="#22272E"/>
<path d="M340.398 61.5435V67.7099H350.342V73.442H340.398V80.1295H351.645V86.0788H332.972V55.5942H351.645V61.5435H340.398Z" fill="#22272E"/>
<path fill-rule="evenodd" clip-rule="evenodd" d="M330.042 69.7179L314.034 55.9809L293.836 62.0826L294.034 62.2542L293.842 62.0921L292.384 68.9919L295.772 69.7167L296.836 64.6803L309.822 75.9257L326.275 70.797L323.856 82.2547L327.241 82.979L330.042 69.7179ZM309.164 79.0133L298.932 70.3937L297.543 76.9706L307.753 85.6963L320.606 81.9046L322.017 75.2217L309.164 79.0133Z" fill="url(#paint7_linear_736_153)"/>
</g>
</g>
<defs>
<filter id="filter0_d_736_153" x="148.129" y="52" width="204.387" height="39.3047" filterUnits="userSpaceOnUse" color-interpolation-filters="sRGB">
<feFlood flood-opacity="0" result="BackgroundImageFix"/>
<feColorMatrix in="SourceAlpha" type="matrix" values="0 0 0 0 0 0 0 0 0 0 0 0 0 0 0 0 0 0 127 0" result="hardAlpha"/>
<feOffset dy="0.870988"/>
<feGaussianBlur stdDeviation="0.435494"/>
<feComposite in2="hardAlpha" operator="out"/>
<feColorMatrix type="matrix" values="0 0 0 0 0.6125 0 0 0 0 0.6125 0 0 0 0 0.6125 0 0 0 0.1 0"/>
<feBlend mode="normal" in2="BackgroundImageFix" result="effect1_dropShadow_736_153"/>
<feBlend mode="normal" in="SourceGraphic" in2="effect1_dropShadow_736_153" result="shape"/>
</filter>
<linearGradient id="paint0_linear_736_153" x1="57.0562" y1="94.2078" x2="9.15743" y2="160.911" gradientUnits="userSpaceOnUse">
<stop stop-color="#4D9FF4"/>
<stop offset="0.5" stop-color="#4895EF"/>
<stop offset="1" stop-color="#3D82DB"/>
</linearGradient>
<linearGradient id="paint1_linear_736_153" x1="35.7347" y1="-6.8944" x2="12.3524" y2="38.6236" gradientUnits="userSpaceOnUse">
<stop stop-color="#4D9FF4"/>
<stop offset="0.5" stop-color="#4895EF"/>
<stop offset="1" stop-color="#3D82DB"/>
</linearGradient>
<linearGradient id="paint2_linear_736_153" x1="172.735" y1="12.1056" x2="149.352" y2="57.6236" gradientUnits="userSpaceOnUse">
<stop stop-color="#4D9FF4"/>
<stop offset="0.5" stop-color="#4895EF"/>
<stop offset="1" stop-color="#3D82DB"/>
</linearGradient>
<linearGradient id="paint3_linear_736_153" x1="239.905" y1="124.834" x2="214.188" y2="174.897" gradientUnits="userSpaceOnUse">
<stop stop-color="#4D9FF4"/>
<stop offset="0.5" stop-color="#4895EF"/>
<stop offset="1" stop-color="#3D82DB"/>
</linearGradient>
<linearGradient id="paint4_linear_736_153" x1="417.228" y1="107.634" x2="401.325" y2="138.594" gradientUnits="userSpaceOnUse">
<stop stop-color="#4D9FF4"/>
<stop offset="0.5" stop-color="#4895EF"/>
<stop offset="1" stop-color="#3D82DB"/>
</linearGradient>
<linearGradient id="paint5_linear_736_153" x1="372.228" y1="-1.36551" x2="356.325" y2="29.5938" gradientUnits="userSpaceOnUse">
<stop stop-color="#4D9FF4"/>
<stop offset="0.5" stop-color="#4895EF"/>
<stop offset="1" stop-color="#3D82DB"/>
</linearGradient>
<linearGradient id="paint6_linear_736_153" x1="490.678" y1="-5.03672" x2="457.922" y2="58.7295" gradientUnits="userSpaceOnUse">
<stop stop-color="#4D9FF4"/>
<stop offset="0.5" stop-color="#4895EF"/>
<stop offset="1" stop-color="#3D82DB"/>
</linearGradient>
<linearGradient id="paint7_linear_736_153" x1="314.042" y1="55.9826" x2="307.702" y2="85.6855" gradientUnits="userSpaceOnUse">
<stop stop-color="#4D9FF4"/>
<stop offset="0.5" stop-color="#4895EF"/>
<stop offset="1" stop-color="#3D82DB"/>
</linearGradient>
<clipPath id="clip0_736_153">
<rect width="500" height="150" fill="white"/>
</clipPath>
</defs>
</svg>
